<?xml version="1.0" encoding="utf-8"?>
<!-- Generator: Adobe Illustrator 17.0.2, SVG Export Plug-In . SVG Version: 6.00 Build 0)  -->
<!DOCTYPE svg PUBLIC "-//W3C//DTD SVG 1.1//EN" "http://www.w3.org/Graphics/SVG/1.1/DTD/svg11.dtd">
<svg version="1.1" id="Calque_1" xmlns="http://www.w3.org/2000/svg" xmlns:xlink="http://www.w3.org/1999/xlink" x="0px" y="0px"
	 width="200px" height="200px" viewBox="0 0 200 200" enable-background="new 0 0 200 200" xml:space="preserve">
<path fill="#3D3334" d="M110.486,16.426c-5.443-3.186-14.349-3.186-19.792,0L12.046,62.46c-5.442,3.186-5.442,8.399,0,11.584
	l78.648,46.035c5.443,3.187,14.348,3.187,19.792,0l78.646-46.035c5.442-3.186,5.442-8.398,0-11.584L110.486,16.426z"/>
<path fill="#C1272D" d="M100.591,15.961c3.427,0,6.853,0.76,9.452,2.282l75.124,43.972c5.199,3.043,5.199,8.022,0,11.066
	l-75.124,43.973c-2.6,1.521-6.025,2.282-9.452,2.282c-3.427,0-6.854-0.762-9.453-2.282L16.012,73.281
	c-5.199-3.044-5.199-8.023,0-11.066l75.126-43.972C93.737,16.721,97.164,15.961,100.591,15.961 M100.591,4.953
	c-5.482,0-10.79,1.34-14.948,3.775L10.517,52.699c-5.934,3.474-9.337,8.959-9.337,15.049c0,6.091,3.403,11.576,9.337,15.049
	l75.126,43.975c4.158,2.432,9.466,3.771,14.948,3.771c5.48,0,10.79-1.34,14.947-3.773l75.124-43.972
	c5.934-3.474,9.338-8.959,9.338-15.05c0-6.089-3.404-11.575-9.338-15.049L115.538,8.727C111.381,6.293,106.071,4.953,100.591,4.953
	L100.591,4.953z"/>
<g>
	
		<line fill="#A3891F" stroke="#A3891F" stroke-width="8" stroke-linecap="round" stroke-miterlimit="10" x1="21" y1="108" x2="21" y2="144"/>
	
		<line fill="none" stroke="#FFC819" stroke-width="8" stroke-linecap="round" stroke-miterlimit="10" x1="29" y1="112" x2="29" y2="151"/>
	
		<line fill="#A3891F" stroke="#A3891F" stroke-width="8" stroke-linecap="round" stroke-miterlimit="10" x1="37" y1="116" x2="37" y2="159"/>
	
		<line fill="none" stroke="#FFC819" stroke-width="8" stroke-linecap="round" stroke-miterlimit="10" x1="45" y1="119" x2="45" y2="166"/>
	
		<line fill="#A3891F" stroke="#A3891F" stroke-width="8" stroke-linecap="round" stroke-miterlimit="10" x1="53" y1="123" x2="53" y2="173"/>
	
		<line fill="none" stroke="#FFC819" stroke-width="8" stroke-linecap="round" stroke-miterlimit="10" x1="61" y1="127" x2="61" y2="180"/>
	
		<line fill="#A3891F" stroke="#A3891F" stroke-width="8" stroke-linecap="round" stroke-miterlimit="10" x1="69" y1="131" x2="69" y2="188"/>
	
		<line fill="none" stroke="#FFC819" stroke-width="8" stroke-linecap="round" stroke-miterlimit="10" x1="77" y1="134" x2="77" y2="195"/>
</g>
<g>
	<g>
		<path fill="#A3891F" d="M112.329,58.188c0.554-0.955,1.656-1.444,3.062-1.382c0.7,0.03,1.472,0.198,2.26,0.5
			c0.786,0.304,1.53,0.826,2.259,1.433c1.566,1.266,2.908,2.732,4.236,4.214c0.689,0.726,1.22,1.542,1.819,2.324
			c0.563,0.798,1.192,1.578,1.655,2.417c0.992,1.658,1.961,3.339,2.679,5.08c0.82,1.728,1.383,3.488,1.942,5.26
			c1.293,4.474,1.851,8.999,1.833,13.434l-0.153,2.983c-0.025,0.412-0.08,0.812-0.16,1.193c-0.1,0.376-0.229,0.734-0.376,1.07
			c-0.296,0.672-0.677,1.253-1.111,1.712c-0.858,0.924-1.962,1.335-3.055,1.117c-1.073-0.212-1.938-0.986-2.53-2.014
			c-0.29-0.514-0.503-1.091-0.621-1.707c-0.06-0.308-0.094-0.626-0.105-0.952c-0.032-0.33-0.039-0.667-0.019-1.011l0.132-2.49
			c0.009-3.691-0.457-7.425-1.509-11.078c-0.462-1.44-0.908-2.881-1.579-4.27c-0.572-1.415-1.362-2.754-2.15-4.087
			c-1.677-2.61-3.68-5.095-6.13-7.116c-0.577-0.478-1.029-1.054-1.448-1.59c-0.42-0.534-0.748-1.108-0.975-1.693
			C111.836,60.366,111.775,59.144,112.329,58.188z"/>
		<path fill="#FFC819" d="M112.107,67.856c0.714-0.842,1.782-1.249,2.996-1.147c1.164,0.133,2.421,0.831,3.409,1.952
			c2.86,3.478,4.852,7.507,6.055,11.63c1.052,3.653,1.518,7.388,1.509,11.078c-0.065,1.244-0.112,2.494-0.226,3.731
			c-0.177,1.225-0.323,2.46-0.556,3.671c-0.306,1.328-1.015,2.434-1.934,3.069c-0.96,0.628-2.072,0.809-3.123,0.471
			c-1.052-0.339-1.854-1.105-2.32-2.011c-0.504-0.923-0.729-1.999-0.474-3.071c0.188-0.981,0.298-1.977,0.45-2.965
			c0.087-0.996,0.119-1.996,0.182-2.994c0.001-2.946-0.373-5.891-1.184-8.723c-0.932-3.195-2.448-6.242-4.571-8.82
			c-0.738-0.813-1.075-1.854-1.117-2.92C111.129,69.789,111.393,68.697,112.107,67.856z"/>
		<path fill="#A3891F" d="M109.226,76.26c0.853-0.703,1.854-1.021,2.847-0.893c0.494,0.062,0.983,0.232,1.432,0.502
			c0.422,0.287,0.77,0.694,1.05,1.17c0.538,0.847,0.924,1.771,1.327,2.686c0.452,0.896,0.673,1.881,1.012,2.821
			c0.811,2.832,1.185,5.777,1.184,8.723c-0.054,3.337-0.641,6.651-1.648,9.824c-0.172,0.525-0.441,0.991-0.778,1.372
			c-0.347,0.377-0.806,0.653-1.271,0.841c-0.944,0.373-2.017,0.343-3.024-0.11c-1.007-0.453-1.77-1.219-2.211-2.03
			c-0.227-0.409-0.342-0.824-0.41-1.248c-0.077-0.428-0.06-0.85,0.074-1.256c0.778-2.453,1.228-4.99,1.271-7.49
			c-0.008-2.203-0.29-4.357-0.86-6.369c-0.253-0.651-0.381-1.371-0.709-1.973c-0.282-0.628-0.532-1.275-0.906-1.832
			c-0.189-0.318-0.254-0.693-0.257-1.08c-0.027-0.366,0.036-0.77,0.176-1.192C107.804,77.886,108.374,76.962,109.226,76.26z"/>
		<path fill="#FFC819" d="M104.126,82.978c0.958-0.55,1.95-0.834,2.834-0.771c0.813,0.105,1.526,0.547,1.821,1.258l0.436,1.338
			c0.57,2.012,0.853,4.166,0.86,6.369c-0.079,3.499-0.896,7.068-2.375,10.392c-0.153,0.402-0.429,0.729-0.799,0.959
			c-0.357,0.237-0.771,0.394-1.216,0.463c-0.891,0.139-1.896-0.085-2.848-0.645c-0.952-0.559-1.687-1.326-2.125-2.054
			c-0.218-0.366-0.36-0.724-0.408-1.056c-0.033-0.327-0.012-0.643,0.091-0.933c1.062-2.388,1.616-4.894,1.679-7.225
			c-0.018-1.458-0.207-2.823-0.536-4.013c-0.097-0.255-0.179-0.513-0.248-0.777c-0.174-0.387,0.076-0.888,0.622-1.515
			C102.403,84.205,103.169,83.528,104.126,82.978z"/>
	</g>
	<g>
		<path fill="#A3891F" d="M189.665,36.803c0.368,2.185-0.494,4.145-1.867,4.524c-2.973,0.808-5.773,2.045-8.357,3.689
			c-3.436,2.19-6.488,5.111-8.986,8.606c-0.267,0.375-0.532,0.754-0.785,1.143c-0.832,1.257-3.002,1.498-4.946,0.448
			c-1.944-1.047-2.78-3.262-1.733-4.852c0.309-0.474,0.632-0.937,0.958-1.396c3.055-4.274,6.854-7.933,11.193-10.697
			c3.26-2.077,6.819-3.647,10.558-4.662C187.501,33.115,189.302,34.631,189.665,36.803z"/>
		<path fill="#FFC819" d="M184.65,29.747c0.547,2.14-0.425,4.246-2.109,4.864c-2.59,0.948-5.071,2.174-7.399,3.658
			c-4.339,2.764-8.139,6.422-11.193,10.697c-0.986,1.374-1.891,2.814-2.721,4.302c-0.907,1.618-3.159,2.267-5.18,1.358
			c-2.009-0.901-2.903-3.294-1.811-5.249c0.975-1.746,2.039-3.443,3.206-5.067c3.609-5.054,8.157-9.449,13.4-12.788
			c2.811-1.792,5.816-3.278,8.946-4.423C181.897,26.329,184.104,27.606,184.65,29.747z"/>
		<path fill="#A3891F" d="M178.415,23.343c0.73,2.092-0.35,4.364-2.316,5.292c-1.812,0.849-3.567,1.814-5.255,2.887
			c-5.243,3.338-9.791,7.734-13.4,12.788c-1.94,2.711-3.619,5.607-5.022,8.63c-0.921,1.978-3.219,3.021-5.292,2.259
			c-2.074-0.76-3.039-3.313-1.963-5.631c1.604-3.457,3.532-6.785,5.771-9.915c4.166-5.833,9.461-10.966,15.607-14.878
			c1.978-1.258,4.038-2.391,6.163-3.387C175.087,20.272,177.691,21.264,178.415,23.343z"/>
		<path fill="#FFC819" d="M171.013,17.766c0.908,2.02-0.253,4.509-2.463,5.795c-0.679,0.389-1.345,0.798-2.005,1.215
			c-6.146,3.913-11.441,9.046-15.607,14.878c-3.136,4.382-5.652,9.153-7.547,14.121c-0.893,2.326-3.174,3.759-5.301,3.139
			c-2.114-0.615-3.193-3.324-2.174-5.99c2.126-5.576,4.961-10.958,8.516-15.926c4.722-6.612,10.765-12.483,17.814-16.97
			c0.758-0.478,1.521-0.947,2.299-1.394C167.147,15.125,170.112,15.755,171.013,17.766z"/>
	</g>
	<g>
		<path fill="#A3891F" d="M71.509,54.959c-2.112,0.647-4.035,0.415-4.288-0.521c0,0-0.088-0.328-0.241-0.9
			c-0.075-0.286-0.166-0.634-0.271-1.032c-0.082-0.369-0.174-0.784-0.275-1.237c-0.43-1.853-0.863-4.147-1.243-6.241
			c-0.182-1.008-0.364-2.015-0.534-2.96c-0.164-0.871-0.314-1.769-0.446-2.372c-0.13-0.642-0.238-1.176-0.314-1.551
			c-0.074-0.389-0.122-0.552-0.122-0.552c-0.128-0.517,1.508-1.373,3.651-1.911c2.142-0.538,4.001-0.468,4.154,0.157
			c0,0,0.058,0.205,0.137,0.621c0.083,0.408,0.201,0.991,0.343,1.69c0.284,1.417,0.629,3.378,1.002,5.451
			c0.373,2.06,0.783,4.219,1.173,5.897c0.092,0.416,0.176,0.796,0.251,1.133c0.093,0.351,0.174,0.657,0.241,0.908
			c0.135,0.504,0.213,0.792,0.213,0.792C75.156,53.137,73.621,54.313,71.509,54.959z"/>
		<path fill="#FFC819" d="M78.799,51.28c-2.129,0.592-4.035,0.403-4.254-0.422c0,0-0.077-0.289-0.179-0.769
			c-0.107-0.484-0.259-1.177-0.442-2.007c-0.342-1.636-0.737-3.768-1.096-5.792c-0.363-2.028-0.717-3.958-1.01-5.333
			c-0.135-0.714-0.269-1.258-0.364-1.635c-0.092-0.382-0.145-0.6-0.145-0.6c-0.148-0.608,1.468-1.579,3.589-2.153
			c2.139-0.593,4.003-0.48,4.177,0.234c0,0,0.06,0.25,0.166,0.688c0.108,0.438,0.26,1.063,0.405,1.822
			c0.322,1.511,0.692,3.537,1.055,5.564c0.359,2.028,0.735,4.053,1.051,5.565c0.166,0.754,0.305,1.383,0.402,1.823
			c0.093,0.441,0.16,0.689,0.16,0.69C82.501,49.647,80.927,50.688,78.799,51.28z"/>
		<path fill="#A3891F" d="M86.2,48.002c-2.152,0.539-4.019,0.383-4.176-0.333c0,0-0.056-0.251-0.152-0.691
			c-0.097-0.44-0.242-1.067-0.379-1.827c-0.3-1.515-0.66-3.543-1.025-5.57c-0.361-2.027-0.76-4.048-1.097-5.556
			c-0.181-0.751-0.332-1.376-0.438-1.814c-0.103-0.438-0.173-0.686-0.172-0.687c-0.207-0.684,1.336-1.772,3.446-2.429
			c2.109-0.656,4.026-0.505,4.276,0.339c-0.001,0,0.081,0.29,0.198,0.782c0.119,0.494,0.289,1.2,0.494,2.047
			c0.372,1.664,0.798,3.832,1.166,5.895c0.372,2.063,0.722,4.033,1.001,5.446c0.132,0.732,0.262,1.286,0.349,1.681
			c0.087,0.396,0.137,0.621,0.137,0.621C89.965,46.54,88.337,47.479,86.2,48.002z"/>
		<path fill="#FFC819" d="M93.729,45.023c-2.154,0.494-4.014,0.371-4.157-0.274c0,0-0.055-0.211-0.133-0.636
			c-0.08-0.418-0.195-1.017-0.332-1.735c-0.276-1.516-0.645-3.537-1.012-5.558c-0.389-2.094-0.832-4.292-1.269-6.003
			c-0.194-0.839-0.382-1.555-0.551-2.08c-0.154-0.514-0.243-0.808-0.243-0.808c-0.247-0.819,1.241-2.068,3.329-2.79
			c2.087-0.723,4.027-0.521,4.323,0.456c0,0,0.103,0.342,0.281,0.939c0.087,0.297,0.191,0.657,0.311,1.07
			c0.094,0.383,0.199,0.815,0.314,1.287c0.222,0.931,0.518,2.087,0.716,3.138c0.219,1.081,0.473,2.291,0.654,3.328
			c0.367,2.016,0.734,4.032,1.01,5.543c0.129,0.678,0.237,1.242,0.312,1.637c0.074,0.406,0.123,0.566,0.122,0.579
			C97.528,43.675,95.881,44.53,93.729,45.023z"/>
	</g>
	<g>
		<path fill="#A3891F" d="M57.276,90.986c0,0-0.075-0.134-0.333-0.366l-0.094-0.08l-0.012-0.015
			c-0.012-0.012-0.03-0.028-0.058-0.049l-0.041-0.027l0.074,0.049c0.047,0.029,0.089,0.049,0.123,0.061
			c0.403,0.217,0.987,0.394,2.034,0.567c0.924,0.113,2.14,0.138,3.154-0.009c0.259-0.024,0.509-0.062,0.748-0.111
			c0.053-0.025,0.028,0.004,0.045,0.01c-0.01,0.018,0.013,0.059,0.032,0.112c-0.013,0.053,0.067,0.104,0.06,0.172
			c0.048,0.044,0.055,0.124,0.091,0.161c0.059,0.085,0.064,0.113,0.068,0.099c0.001-0.001-0.002,0.001-0.009,0.007l0.365,0.378
			l0.838,0.867c0.559,0.576,1.13,1.104,1.691,1.663l1.711,1.554c2.293,1.998,4.625,3.702,6.96,5.062
			c2.334,1.376,4.67,2.351,7.021,3.004l0.881,0.246l0.89,0.183c0.588,0.152,1.193,0.207,1.79,0.307
			c0.595,0.115,1.214,0.106,1.817,0.186c0.632,0.046,1.372,0.03,2.052,0.06c2.769,0.016,5.486-0.245,8.07-0.786
			c2.577-0.562,4.986-1.44,7.18-2.546c2.191-1.112,4.159-2.468,5.868-4.047c1.679-1.61,3.1-3.44,4.28-5.488
			c0.634-1,1.067-2.126,1.604-3.245c0.538-1.352,1.194-3.172,1.873-5.027c1.373-3.758,2.901-7.85,4.876-12.108
			c0.987-2.132,2.086-4.318,3.432-6.59c1.347-2.268,2.901-4.617,4.965-7.049c2.07-2.41,4.674-4.988,8.413-7.219
			c1.865-1.099,4.001-2.099,6.371-2.767c1.182-0.346,2.379-0.627,3.632-0.778c0.62-0.087,1.242-0.16,1.863-0.219
			c0.613-0.03,1.229-0.04,1.844-0.041c0.613,0.001,1.233,0.01,1.84,0.042c0.581,0.056,1.163,0.123,1.744,0.201
			c0.58,0.078,1.159,0.167,1.734,0.266c0.529,0.121,1.057,0.25,1.582,0.388l1.569,0.438c0.522,0.153,0.947,0.335,1.423,0.51
			l1.382,0.551l0.685,0.287l0.725,0.358c0.966,0.487,1.919,1.006,2.851,1.55l1.283,0.823l0.308,0.199l0.153,0.099l0.666,0.449
			l0.182,0.136c0.482,0.364,0.959,0.739,1.427,1.124c0.962,0.756,1.785,1.598,2.6,2.462c3.213,3.482,5.313,7.527,6.47,11.684
			c1.144,4.168,1.381,8.538,0.557,12.994c-0.231,1.12-0.45,2.218-0.842,3.338c-0.361,1.114-0.753,2.21-1.296,3.302
			c-0.258,0.544-0.526,1.084-0.805,1.616c-0.301,0.53-0.634,1.053-0.966,1.57c-0.351,0.532-0.646,0.993-1.072,1.562
			c-0.502,0.64-1.032,1.265-1.584,1.869c-0.276,0.302-0.558,0.598-0.845,0.888l-0.432,0.43l-0.139,0.132l-0.068,0.061l-0.547,0.487
			l-0.273,0.244l-0.068,0.061l-0.914,0.764l-0.332,0.242c-0.445,0.321-0.896,0.636-1.353,0.943
			c-0.461,0.304-0.904,0.614-1.392,0.892c-0.494,0.275-0.994,0.542-1.498,0.8c-0.506,0.255-1.009,0.514-1.528,0.74
			c-0.526,0.215-1.059,0.42-1.594,0.616c-0.535,0.191-1.073,0.393-1.613,0.55l-1.335,0.343l-0.628,0.148
			c-0.417,0.09-0.847,0.199-1.256,0.259c-0.82,0.125-1.646,0.229-2.472,0.315c-1.199,0.106-2.294-0.011-3.296-0.206
			c-0.951-0.239-1.768-0.601-2.426-1.019c-1.281-0.867-1.837-2.007-1.656-3.087c0.198-1.095,1.058-1.939,2.237-2.54
			c0.606-0.314,1.281-0.553,2.017-0.724c0.764-0.215,1.564-0.316,2.437-0.395c0.6-0.066,1.198-0.142,1.795-0.228
			c0.298-0.041,0.602-0.125,0.901-0.19l0.451-0.107l0.96-0.242c0.387-0.111,0.768-0.261,1.151-0.397l1.14-0.435
			c0.372-0.162,0.729-0.353,1.091-0.535c0.729-0.363,1.436-0.754,2.076-1.216l0.978-0.678l0.242-0.173l0.491-0.412l0.068-0.061
			l0.273-0.244l0.546-0.487c0.061-0.058,0.059-0.044,0.17-0.16l0.276-0.285l0.54-0.583c0.355-0.395,0.7-0.8,1.03-1.213
			c0.286-0.382,0.495-0.718,0.738-1.086c0.231-0.362,0.467-0.724,0.679-1.094l0.561-1.138c0.388-0.762,0.658-1.543,0.915-2.332
			c0.286-0.788,0.43-1.58,0.6-2.378c0.592-3.187,0.427-6.373-0.405-9.397c-0.84-3.019-2.363-5.926-4.634-8.382
			c-0.577-0.608-1.151-1.211-1.831-1.734l-0.998-0.792l-0.126-0.097l-0.371-0.25l-0.154-0.099l-0.308-0.199l-1.258-0.807
			c-0.682-0.385-1.375-0.757-2.074-1.114c-0.707-0.385-1.373-0.595-2.069-0.884c-0.666-0.283-1.424-0.499-2.192-0.695l-1.145-0.288
			l-1.23-0.182l-1.235-0.149c-0.425-0.02-0.856-0.021-1.286-0.023c-3.448-0.035-6.963,1.072-9.635,2.689
			c-2.711,1.614-4.734,3.581-6.401,5.527c-3.292,3.931-5.404,7.917-7.226,11.814c-1.809,3.901-3.264,7.775-4.619,11.488
			c-0.676,1.845-1.331,3.675-1.961,5.258c-0.669,1.449-1.265,2.914-2.09,4.249c-6.059,11.045-19.052,17.161-32.415,16.886
			c-0.828-0.032-1.686-0.02-2.489-0.076c-0.787-0.091-1.586-0.1-2.365-0.24c-0.781-0.123-1.569-0.209-2.338-0.399l-1.162-0.243
			L79.6,111.8c-3.057-0.849-6.034-2.112-8.885-3.788c-2.855-1.662-5.598-3.681-8.216-5.962l-1.939-1.762
			c-0.628-0.622-1.271-1.219-1.891-1.857l-0.928-0.96l-0.437-0.453l-0.234-0.281c-0.322-0.361-0.6-0.781-0.878-1.244
			c-0.667-1.094-1.07-2.411-1.222-3.507c-0.142-1.119,0.06-1.897,0.238-2.289c0.117-0.184,0.593-0.078,1.156,0.381
			c0.15,0.117,0.301,0.251,0.452,0.4c0.08,0.082,0.156,0.161,0.228,0.234c0.057,0.062,0.11,0.122,0.16,0.177
			C57.234,90.93,57.255,90.959,57.276,90.986z"/>
		<path fill="#FFC819" d="M51.628,87.913c0.964,0.488,1.807,1.165,2.387,1.618c0.592,0.486,0.984,0.829,0.924,1.2
			c-0.007-0.004-0.006,0.069-0.004,0.214c-0.001,0.143-0.034,0.342,0.007,0.656c0.031,0.592,0.192,1.605,0.709,2.812
			c0.103,0.311,0.298,0.592,0.438,0.914l0.279,0.451c0.244,0.385,0.484,0.728,0.772,1.04c0.078,0.088,0.115,0.147,0.223,0.263
			l0.396,0.408l0.816,0.844c0.541,0.574,1.117,1.097,1.678,1.656c4.543,4.361,9.771,8.214,15.604,10.538
			c2.912,1.165,5.959,1.99,9.126,2.329c0.807,0.049,1.563,0.172,2.417,0.178c0.844,0.021,1.691,0.042,2.54,0.063
			c0.844-0.035,1.69-0.07,2.538-0.105c0.85-0.021,1.682-0.17,2.527-0.241c6.698-0.83,13.245-3.176,18.381-7.217
			c2.577-1.998,4.82-4.367,6.663-7.024c0.959-1.303,1.721-2.746,2.476-4.182l1.012-2.229c0.328-0.797,0.653-1.668,0.99-2.577
			c1.346-3.654,2.73-7.584,4.391-11.47c1.67-3.896,3.538-7.811,6.2-11.677c1.339-1.927,2.877-3.851,4.851-5.665
			c1.961-1.798,4.445-3.521,7.486-4.567c3.018-1.07,6.485-1.259,9.404-0.681c2.963,0.581,5.283,1.573,7.8,3.022l1.134,0.725
			l0.546,0.353l0.43,0.287l0.223,0.172l0.443,0.347c1.197,0.913,2.232,1.971,3.141,3.083c1.804,2.241,3.043,4.736,3.747,7.281
			c1.398,5.069,0.972,10.515-1.569,15.244c-0.691,1.167-1.299,2.2-2.491,3.495c-0.271,0.302-0.549,0.597-0.83,0.884
			c-0.212,0.206-0.297,0.27-0.451,0.411l-0.412,0.367l-0.205,0.183l-0.051,0.046c-0.854,0.714-0.289,0.235-0.503,0.411l-0.182,0.129
			c-1.882,1.417-4.046,2.501-6.251,3.206c-1.504,0.396-1.192,0.3-1.512,0.382c-0.209,0.047-0.415,0.094-0.618,0.141
			c-0.406,0.089-0.794,0.122-1.175,0.178c-0.763,0.104-1.474,0.178-2.107,0.177c-0.634,0.007-1.244,0.045-1.746-0.001
			c-1.02-0.067-1.836-0.121-2.344-0.217c-0.522-0.082-0.801-0.126-0.801-0.126c-1.569-0.265-2.786-1.072-3.45-2.046
			c-0.692-0.958-0.814-2.111-0.438-3.139c0.389-1.044,1.191-1.775,2.139-2.256c0.945-0.456,2.013-0.627,3.097-0.445
			c0,0,0.192,0.031,0.555,0.087c0.359,0.076,0.897,0.095,1.579,0.148c0.681,0.01,1.517,0.037,2.458-0.113
			c0.235-0.036,0.482-0.046,0.729-0.105c0.419-0.102,0.851-0.207,1.293-0.315c1.32-0.438,2.612-1.071,3.783-1.949
			c1.154-0.892,2.168-2.022,2.908-3.359c1.459-2.691,1.772-6.076,0.896-9.243c-0.432-1.587-1.209-3.11-2.273-4.431
			c-0.538-0.653-1.137-1.274-1.826-1.792c-0.664-0.55-1.433-0.967-2.159-1.45c-1.525-0.85-3.168-1.562-4.934-1.9
			c-1.761-0.346-3.637-0.232-5.372,0.374c-1.742,0.596-3.32,1.647-4.697,2.912c-1.381,1.268-2.581,2.745-3.665,4.311
			c-2.172,3.14-3.877,6.647-5.416,10.252c-1.544,3.61-2.867,7.358-4.25,11.115c-1.325,3.776-3.081,7.453-5.406,10.772
			c-2.308,3.327-5.137,6.312-8.354,8.801c-6.43,5.036-14.383,7.845-22.302,8.821c-0.997,0.091-1.986,0.254-2.983,0.283
			c-0.996,0.041-1.99,0.081-2.981,0.121c-0.992-0.024-1.981-0.047-2.968-0.071c-0.987-0.012-1.965-0.15-2.943-0.219
			c-3.904-0.42-7.684-1.438-11.22-2.856c-7.103-2.843-13.114-7.354-18.147-12.179c-1.257-1.214-2.482-2.43-3.615-3.694
			c-0.567-0.631-1.06-1.32-1.506-2.025c-0.17-0.28-0.339-0.558-0.506-0.833c-0.277-0.567-0.591-1.094-0.797-1.644
			c-0.928-2.157-1.266-4.111-1.345-5.471c-0.064-0.682-0.024-1.219-0.011-1.585c0.011-0.366,0.03-0.56,0.03-0.56
			c0.125-1.105,0.815-2.006,1.72-2.353C49.626,87.252,50.627,87.401,51.628,87.913z"/>
		<path fill="#A3891F" d="M42.994,89.572c1.081,0.116,2.062,0.762,2.757,1.548c0.718,0.797,1.236,1.737,1.428,2.82
			c-0.001,0,0.127,0.774,0.538,2.077c0.198,0.655,0.507,1.427,0.915,2.287c0.108,0.212,0.22,0.431,0.335,0.656
			c0.059,0.112,0.112,0.229,0.178,0.341c0.163,0.266,0.327,0.535,0.494,0.808c0.746,1.173,1.668,2.271,2.71,3.294
			c1.006,1.058,2.082,2.096,3.193,3.14c4.452,4.149,9.82,8.184,16.25,10.973c3.209,1.385,6.673,2.431,10.298,3.009
			c0.908,0.133,1.818,0.291,2.744,0.347c0.924,0.088,1.852,0.169,2.79,0.169c0.936,0.011,1.877,0.072,2.822,0.04
			c0.944-0.038,1.893-0.077,2.846-0.117c7.575-0.583,15.429-2.7,22.157-7.105c6.734-4.328,12.229-10.806,15.318-18.347
			c1.562-3.755,2.805-7.636,4.313-11.397c1.494-3.763,3.115-7.476,5.161-10.921c2.055-3.399,4.532-6.699,7.98-8.643
			c1.71-0.956,3.664-1.468,5.602-1.387c1.941,0.068,3.808,0.685,5.508,1.533c0.418,0.228,0.854,0.425,1.256,0.676l1.193,0.771
			c0.785,0.524,1.509,1.135,2.137,1.83c1.261,1.386,2.155,3.064,2.669,4.824c1.034,3.513,0.555,7.422-1.457,10.304
			c-0.99,1.446-2.359,2.561-3.838,3.385c-0.382,0.184-0.741,0.414-1.138,0.558l-1.183,0.433c-0.318,0.077-0.635,0.153-0.947,0.228
			c-0.61,0.169-1.229,0.18-1.806,0.273c-2.348,0.14-4.289-0.272-5.606-0.612c-0.653-0.201-1.166-0.358-1.517-0.466
			c-0.343-0.128-0.525-0.197-0.525-0.197c-0.52-0.186-0.97-0.485-1.319-0.869c-0.355-0.372-0.616-0.81-0.769-1.296
			c-0.312-0.958-0.203-2.027,0.319-3.007c1.07-1.928,3.148-2.845,4.535-2.333c0,0,0.126,0.048,0.363,0.139
			c0.229,0.07,0.565,0.173,0.991,0.304c0.825,0.22,1.966,0.416,2.954,0.358c0.216-0.066,0.487-0.031,0.691-0.113l0.081-0.021
			l0.041-0.01c0.065-0.015,0.142-0.03,0.215-0.039c0.129-0.058,0.255-0.114,0.393-0.15c0.138-0.035,0.247-0.145,0.383-0.194
			c0.138-0.038,0.257-0.161,0.391-0.247c0.065-0.045,0.134-0.087,0.205-0.126l0.026-0.015c-0.824,0.686-0.194,0.159-0.362,0.298
			l0.12-0.107l0.241-0.215c0.284-0.253,0.814-0.712,0.553-0.55c-0.038,0.017-0.068,0.042-0.088,0.075
			c-0.008,0.01-0.022,0.049-0.017,0.04l0.032-0.072c0.232-0.328,0.438-0.809,0.524-1.442c0.089-0.626,0.038-1.381-0.166-2.068
			c-0.199-0.69-0.545-1.291-0.913-1.69c-0.174-0.198-0.398-0.372-0.542-0.48l-1.194-0.771l-0.149-0.097
			c-0.041-0.024-0.05-0.021-0.076-0.033l-0.131-0.052c-0.086-0.037-0.17-0.076-0.253-0.12c-0.087-0.042-0.153-0.095-0.253-0.137
			l-0.326-0.119c-0.215-0.082-0.438-0.202-0.608-0.215c-0.38-0.121-0.674-0.151-0.924-0.168c-0.482-0.004-0.803,0.055-1.451,0.396
			c-0.629,0.341-1.488,1.042-2.361,2.048c-0.877,1.001-1.767,2.272-2.609,3.682c-1.692,2.841-3.189,6.219-4.591,9.76
			c-0.702,1.777-1.378,3.615-2.069,5.51c-0.71,1.906-1.356,3.832-2.307,6.04c-3.654,8.954-10.322,16.842-18.368,21.988
			c-4.006,2.611-8.333,4.556-12.721,5.897c-4.389,1.354-8.839,2.136-13.216,2.464c-1.094,0.045-2.184,0.09-3.269,0.135
			c-1.084,0.034-2.158-0.029-3.23-0.044c-1.057-0.004-2.16-0.095-3.262-0.199c-1.099-0.072-2.183-0.253-3.263-0.413
			c-4.314-0.688-8.436-1.938-12.203-3.564c-7.554-3.281-13.618-7.893-18.522-12.456c-1.225-1.148-2.404-2.289-3.497-3.437
			c-0.278-0.288-0.554-0.574-0.829-0.858c-0.297-0.312-0.696-0.783-1.029-1.169c-0.357-0.4-0.667-0.829-0.976-1.255
			c-0.306-0.423-0.618-0.842-0.872-1.275c-0.242-0.398-0.481-0.791-0.717-1.179c-0.088-0.166-0.175-0.329-0.261-0.491
			c-0.167-0.325-0.328-0.642-0.484-0.948c-0.592-1.242-1.031-2.358-1.326-3.312c-0.328-0.935-0.484-1.726-0.616-2.249
			c-0.13-0.523-0.173-0.817-0.174-0.817c-0.298-1.637,0.043-3.249,0.779-4.329C40.854,89.979,41.88,89.462,42.994,89.572z"/>
		<path fill="#FFC819" d="M35.383,96.147c1.077-0.189,2.212,0.356,3.184,1.255c0.979,0.905,1.849,2.129,2.49,3.583
			c0.2,0.504,0.466,0.978,0.707,1.463l0.375,0.722l0.211,0.352l0.456,0.747c0.188,0.303,0.368,0.606,0.586,0.898
			c0.429,0.579,0.83,1.194,1.321,1.739c0.465,0.546,1.006,1.168,1.335,1.49c0.744,0.76,1.462,1.535,2.241,2.275
			c0.764,0.748,1.53,1.495,2.338,2.216c0.787,0.733,1.605,1.445,2.441,2.144c6.592,5.622,14.672,10.347,23.727,12.588
			c1.133,0.251,2.268,0.508,3.41,0.71c1.149,0.158,2.294,0.385,3.451,0.469c2.344,0.254,4.536,0.269,6.779,0.287
			c4.478-0.056,8.979-0.638,13.396-1.713c4.409-1.096,8.762-2.673,12.824-4.926c4.064-2.234,7.86-5.052,11.176-8.376
			c3.312-3.32,6.177-7.134,8.322-11.277c0.605-1.005,1.02-2.088,1.518-3.139l0.713-1.589l0.594-1.512l2.056-5.58
			c1.312-3.578,2.653-6.972,4.161-10.098c1.495-3.088,3.231-5.936,4.959-7.753c0.851-0.904,1.658-1.476,2.212-1.717
			c0.569-0.238,0.854-0.274,1.427-0.22c0.143,0.023,0.286,0.009,0.479,0.091c0.186,0.068,0.353,0.052,0.582,0.177
			c0.206,0.098,0.462,0.165,0.641,0.258c0.166,0.098,0.336,0.181,0.518,0.25c0.037-0.013,0.337,0.201,0.516,0.312l0.615,0.397
			l0.615,0.397l0.039,0.024c0.08,0.053-0.533-0.358-0.271-0.18l0.017,0.018l0.033,0.035l0.07,0.063
			c0.049,0.042,0.105,0.072,0.158,0.109c0.041,0.058,0.086,0.111,0.135,0.16c0.112,0.08,0.192,0.214,0.284,0.339
			c0.371,0.496,0.688,1.211,0.821,1.975c0.148,0.764,0.072,1.544-0.106,2.115c-0.097,0.283-0.191,0.54-0.33,0.727
			c-0.034,0.047-0.062,0.098-0.086,0.153c-0.02,0.04,0.021-0.059,0.049-0.068c0.033-0.028,0.079-0.046,0.132-0.05l-0.524,0.472
			l-0.273,0.244l-0.137,0.122l-0.068,0.061l-0.034,0.031c-0.105,0.089,0.776-0.646,0.396-0.332
			c-0.081,0.044-0.158,0.092-0.234,0.144c-0.075,0.052-0.147,0.106-0.219,0.166c-0.075,0.046-0.155,0.066-0.228,0.107
			c-0.145,0.083-0.287,0.17-0.448,0.203c-0.148,0.064-0.3,0.13-0.477,0.148c-1.475,0.49-4.634-0.143-7.78-1.855
			c-1.533-0.815-1.721-3.14-0.449-4.935c1.266-1.819,3.194-2.659,4.201-2.131c1.094,0.598,2.05,0.91,2.521,1.018
			c0.145,0.058,0.177,0.016,0.249,0.052c0.047,0.026,0.017-0.013,0.027-0.004c0.006-0.088-0.016,0.244-0.018,0.399
			c-0.011,0.175,0.005,0.425-0.011,0.544c-0.02,0.286-0.021,0.581-0.004,0.884c0.008,0.152,0.021,0.306,0.039,0.46l0.014,0.302
			c0.016,0.205,0.047,0.42,0.094,0.641c0.036,0.184,0.033,0.235,0.068,0.373c0.018,0.084,0.068,0.239,0.082,0.28
			c0,0.007,0.003,0.022,0.01,0.043c-0.001,0.003,0.036,0.091,0.017,0.042c-0.029-0.071-0.06-0.133-0.09-0.187l-0.102-0.166
			c-0.079-0.144-0.161-0.277-0.247-0.399c-0.086-0.123-0.175-0.234-0.266-0.335c-1.074-2.422,1.438,3.278,1.198,2.681l0.039-0.025
			l0.077-0.051l0.154-0.102l0.308-0.204l0.587-0.392c-0.125,0.046-0.24,0.111-0.342,0.191c-0.051,0.04-0.099,0.084-0.142,0.129
			c-0.041,0.028-0.087,0.143-0.11,0.086c-0.056-0.044-0.108-0.079-0.154-0.106c-0.053-0.023-0.256-0.151-0.402-0.208
			c-0.113-0.037-0.378-0.165-0.542-0.198c-0.389-0.116-0.803-0.184-1.105-0.192c-0.307-0.02-0.481,0.012-0.497,0.015
			c-0.041,0.028,0.688-0.171,1.301-0.634c0.073-0.052,0.15-0.113,0.229-0.184l0.181-0.152c0.059-0.054,0.119-0.117,0.181-0.19
			c0.036-0.037,0.063-0.062,0.101-0.107l0.054-0.07l0.028-0.04l0.014-0.021c2.227-4.234-3.023,5.757-2.5,4.718l-0.038-0.025
			l-0.615-0.397l-0.615-0.397l-0.308-0.198c-0.039-0.024-0.131-0.088-0.126-0.078l0.026,0.034c0.07,0.087,0.162,0.147,0.264,0.176
			c0.077,0.012,0.027,0.029,0.049,0.035l0.002,0.003l0.059-0.136l0.117-0.289l0.216-0.592l0.191-0.61
			c0.059-0.223,0.111-0.298,0.162-0.46c0.102-0.283,0.188-0.579,0.261-0.884l0.096-0.467l0.038-0.239l0.037-0.149
			c0.047-0.188,0.083-0.385,0.106-0.592c0.194-1.59-0.239-1.412,0.523,0.231c0.073,0.116,0.202,0.425,0.34,0.691
			c0.136,0.264,0.283,0.514,0.441,0.748c0.141,0.178,0.375,0.625,0.583,0.918c0.218,0.324,0.447,0.631,0.688,0.923
			c0.36,0.421,0.214,0.311,0.23,0.342c-0.012,0.013-0.026,0.022-0.044,0.028c-0.045,0.036-0.129,0.15-0.207,0.207
			c-0.362,0.377-0.969,1.155-1.595,2.153c-0.631,1.004-1.302,2.213-1.957,3.572c-1.318,2.734-2.573,5.882-3.852,9.372l-2.088,5.664
			l-0.651,1.661l-0.821,1.844c-0.573,1.222-1.066,2.466-1.764,3.643c-2.5,4.812-5.846,9.285-9.717,13.165
			c-3.874,3.887-8.304,7.169-13.012,9.753c-4.71,2.605-9.708,4.421-14.743,5.671c-5.041,1.229-10.147,1.881-15.198,1.944
			c-2.536-0.016-4.963-0.035-7.709-0.328c-1.338-0.104-2.668-0.355-4-0.544c-1.325-0.234-2.642-0.529-3.954-0.824
			c-5.225-1.296-10.196-3.31-14.714-5.773c-4.536-2.458-8.589-5.373-12.257-8.465c-0.923-0.771-1.823-1.555-2.683-2.356
			c-0.886-0.791-1.719-1.603-2.55-2.416c-0.849-0.809-1.622-1.641-2.427-2.465c-0.31-0.301-1.081-1.169-1.691-1.892
			c-0.647-0.732-1.195-1.541-1.757-2.313c-0.287-0.391-0.525-0.785-0.773-1.183l-0.598-0.982l-0.274-0.463l-0.494-0.941
			c-0.318-0.634-0.657-1.258-0.924-1.915c-0.846-1.911-1.012-3.891-0.647-5.389C33.461,97.32,34.288,96.354,35.383,96.147z"/>
	</g>
	<g>
		<path fill="#A3891F" d="M104.739,54.866c-1.093-0.153-1.969-0.963-2.46-2.233c-0.246-0.633-0.396-1.376-0.429-2.185
			c-0.019-0.812,0.159-1.718,0.432-2.616c0.531-1.892,1.428-3.814,2.293-5.678c1.023-1.856,2.073-3.69,3.425-5.385
			c2.609-3.403,5.874-6.394,9.461-8.567c4.379-2.704,9.109-4.336,13.769-5.109c4.672-0.771,9.31-0.72,13.839,0.05
			c4.526,0.779,8.973,2.28,13.191,4.652c4.203,2.364,8.203,5.665,11.381,9.915c0.713,1.019,1.463,2.004,2.073,3.1
			c0.513,0.904,0.884,1.834,1.108,2.715c0.211,0.887,0.22,1.753,0.136,2.494c-0.183,1.496-0.878,2.525-1.945,2.865
			c-1.035,0.334-2.233-0.033-3.311-0.772c-0.546-0.369-1.029-0.852-1.521-1.388c-0.506-0.53-0.963-1.143-1.35-1.837
			c-0.461-0.843-1.053-1.593-1.593-2.38c-2.443-3.27-5.558-5.859-8.902-7.741c-3.352-1.887-6.946-3.107-10.615-3.738
			c-3.672-0.626-7.438-0.663-11.182-0.044c-3.737,0.621-7.474,1.922-10.877,4.026c-5.582,3.392-9.994,9.182-11.756,15.246
			c-0.214,0.713-0.555,1.365-0.896,1.942c-0.326,0.575-0.726,1.081-1.176,1.498C106.935,54.526,105.834,55.02,104.739,54.866z"/>
		<path fill="#FFC819" d="M113.719,51.468c-1.05-0.33-1.856-1.157-2.224-2.31c-0.152-0.57-0.193-1.219-0.113-1.902
			c0.085-0.682,0.253-1.407,0.664-2.075c2.222-4.121,5.647-7.722,9.616-10.171c3.403-2.104,7.14-3.405,10.877-4.026
			c3.744-0.619,7.51-0.582,11.182,0.044c3.669,0.631,7.263,1.851,10.615,3.738c3.345,1.882,6.459,4.471,8.902,7.741
			c1.75,2.263,3.023,4.908,3.971,7.614c0.423,1.524,0.395,3.026-0.226,4.105c-0.568,1.089-1.491,1.749-2.59,1.86
			c-1.098,0.111-2.165-0.297-2.99-0.932c-0.778-0.655-1.53-1.493-1.802-2.558c-0.679-1.875-1.528-3.712-2.766-5.293
			c-3.438-4.602-8.861-7.438-14.464-8.39c-5.607-0.959-11.628-0.108-16.509,2.904c-2.83,1.761-5.199,4.251-6.788,7.183
			c-0.301,0.465-0.582,0.909-0.967,1.269c-0.38,0.362-0.828,0.657-1.319,0.88C115.868,51.613,114.775,51.8,113.719,51.468z"/>
		<path fill="#A3891F" d="M122.59,50.911c-0.973-0.523-1.66-1.326-1.932-2.303c-0.15-0.496-0.155-1-0.028-1.489
			c0.121-0.491,0.338-0.995,0.687-1.422c1.329-1.494,2.842-2.826,4.547-3.878c4.881-3.013,10.901-3.863,16.509-2.904
			c5.602,0.952,11.026,3.787,14.464,8.39c1.993,2.672,3.234,5.887,3.58,9.202c0.111,1.102-0.355,2.133-1.055,2.79
			c-0.781,0.669-1.81,0.979-2.91,0.888c-1.101-0.091-2.071-0.522-2.744-1.052c-0.754-0.516-1.183-1.127-1.247-1.787
			c-0.222-1.995-0.902-3.705-2.026-5.245c-1.913-2.623-5.477-4.648-9.409-5.301c-3.921-0.689-8.07,0.004-10.96,1.827
			c-1.022,0.633-1.88,1.413-2.658,2.259c-0.198,0.25-0.45,0.435-0.793,0.539c-0.346,0.1-0.746,0.151-1.155,0.177
			C124.615,51.625,123.561,51.434,122.59,50.911z"/>
		<path fill="#FFC819" d="M130.45,53.479c-0.844-0.713-1.466-1.485-1.73-2.264c-0.305-0.803-0.114-1.484,0.365-1.919
			c0.315-0.233,0.661-0.434,0.979-0.67c2.89-1.823,7.039-2.516,10.96-1.827c3.933,0.653,7.496,2.678,9.409,5.301
			c0.834,1.054,1.355,2.241,1.698,3.525c0.226,0.621,0.244,1.334,0.365,2.017c-0.008,0.73,0.084,1.44-0.034,2.226
			c-0.043,0.368-0.134,0.694-0.406,0.991c-0.268,0.295-0.611,0.533-1.01,0.699c-0.798,0.335-1.809,0.364-2.883,0.104
			c-1.072-0.26-2.017-0.723-2.672-1.175c-0.327-0.228-0.579-0.457-0.732-0.679c-0.147-0.227-0.302-0.382-0.273-0.567
			c0.088-0.411-0.008-0.663,0.036-0.958c-0.083-0.214-0.026-0.468-0.121-0.595c-0.09-0.321-0.136-0.53-0.371-0.792
			c-0.237-0.327-0.698-0.781-1.465-1.216c-0.757-0.433-1.791-0.811-2.89-0.997c-1.099-0.192-2.25-0.188-3.212-0.024
			c-0.969,0.161-1.721,0.471-2.2,0.774c-0.087,0.094-0.212,0.142-0.311,0.208c-0.104,0.149-0.571-0.145-1.165-0.499
			C132.169,54.753,131.293,54.191,130.45,53.479z"/>
	</g>
	<g>
		<path fill="#A3891F" d="M103.927,73.588c-2.051-0.846-3.228-2.783-2.697-4.28c1.059-3.2,1.567-6.1,1.568-8.78
			c-0.045-0.602-0.005-1.209-0.064-1.807c-0.091-0.594-0.142-1.189-0.213-1.788c-0.146-0.596-0.273-1.193-0.384-1.796
			c-0.159-0.547-0.349-1.035-0.486-1.567c-0.729-2.01-1.786-3.77-3.237-5.37c-1.447-1.594-3.313-3.018-5.513-4.153
			c-2.199-1.13-4.72-1.951-7.307-2.379c-2.544-0.441-5.382-0.449-7.322-0.113c-2.094,0.348-3.993,1.072-5.793,2.196
			c-0.429,0.331-0.886,0.604-1.331,0.923c-0.416,0.385-0.844,0.75-1.289,1.101c-0.414,0.416-0.81,0.877-1.237,1.292
			c-0.099,0.103-0.228,0.218-0.306,0.309l-0.188,0.239c-0.117,0.124-0.286,0.366-0.455,0.6c-0.684,0.942-1.484,2.234-2.211,3.568
			l-0.535,1.021c-0.129,0.242-0.239,0.494-0.361,0.74c-0.705,1.436-2.814,1.934-4.874,1.138c-1.023-0.408-1.83-1.107-2.263-1.946
			c-0.415-0.835-0.496-1.817-0.064-2.676c0.144-0.291,0.276-0.588,0.428-0.875l0.633-1.209c0.869-1.591,1.816-3.14,2.776-4.464
			c0.24-0.331,0.478-0.665,0.708-0.928l0.343-0.426c0.125-0.145,0.284-0.294,0.423-0.442c0.581-0.585,1.134-1.207,1.718-1.782
			c0.623-0.518,1.237-1.042,1.846-1.577c0.645-0.475,1.315-0.898,1.962-1.366c2.681-1.688,5.638-2.814,8.764-3.329
			c3.05-0.505,6.604-0.448,9.953,0.115c6.754,1.105,13.136,4.302,17.404,9.03c2.147,2.355,3.784,5.074,4.86,8.062
			c0.223,0.77,0.489,1.513,0.708,2.293l0.521,2.444l0.297,2.462c0.078,0.823,0.047,1.655,0.091,2.482
			c-0.002,3.676-0.708,7.446-1.971,11.258C108.186,73.638,105.955,74.437,103.927,73.588z"/>
		<path fill="#FFC819" d="M112.627,73.062c-2.115-0.718-3.301-2.744-2.87-4.507c0.725-2.708,0.974-5.371,1.041-8.003
			c-0.011-1.844-0.163-3.673-0.508-5.486c-0.356-1.844-0.827-3.554-1.502-5.175c-1.329-3.252-3.361-6.154-5.977-8.592
			c-5.213-4.907-12.877-7.687-20.417-7.986c-0.928,0.032-1.909-0.034-2.795,0.05l-1.325,0.119l-0.664,0.051l-0.646,0.129
			c-0.857,0.183-1.741,0.272-2.561,0.576l-1.256,0.367c-0.422,0.115-0.806,0.331-1.213,0.484c-3.225,1.313-6.158,3.366-8.685,6.031
			l-0.958,0.989c-0.253,0.328-0.507,0.608-0.771,0.964c-0.529,0.708-1.066,1.49-1.586,2.317c-0.522,0.829-1.021,1.701-1.508,2.584
			l-0.684,1.305c-0.633,1.294-1.257,2.606-1.766,3.918c-0.699,1.711-2.796,2.543-4.923,1.949c-1.059-0.313-1.896-0.993-2.376-1.894
			c-0.443-0.887-0.559-2.001-0.13-3.022c0.605-1.553,1.319-3.061,2.054-4.557l0.79-1.508c0.564-1.026,1.146-2.042,1.77-3.033
			c1.259-1.968,2.598-3.915,4.298-5.534c3.216-3.395,7.12-6.16,11.46-7.921c4.333-1.789,9.06-2.507,13.736-2.362
			c4.68,0.176,9.329,1.122,13.699,2.799c4.365,1.677,8.476,4.099,11.892,7.31c3.431,3.184,6.183,7.102,7.949,11.439
			c1.761,4.338,2.603,9.033,2.604,13.711c-0.067,3.326-0.419,6.665-1.273,9.892c-0.21,1.087-1.008,1.909-1.881,2.38
			C114.746,73.318,113.675,73.41,112.627,73.062z"/>
		<path fill="#A3891F" d="M121.408,71.427c-1.071-0.266-1.937-0.971-2.48-1.848c-0.271-0.439-0.462-0.924-0.554-1.432
			c-0.1-0.51-0.154-1.052-0.067-1.597c0.104-0.827,0.28-1.645,0.324-2.477l0.156-2.495c0.012-0.208,0.033-0.416,0.02-0.624
			l-0.027-1.077l-0.046-1.756c-0.01-0.585-0.121-1.164-0.176-1.746l-0.206-1.744c-0.08-0.58-0.231-1.147-0.344-1.721l-0.365-1.718
			c-0.138-0.568-0.341-1.12-0.509-1.68c-1.378-4.473-3.755-8.63-6.903-12.096c-3.129-3.496-7.071-6.198-11.295-8.193
			c-4.241-1.979-8.817-3.247-13.477-3.711c-4.655-0.446-9.416-0.154-13.896,1.229c-4.481,1.359-8.628,3.759-12.1,6.897l-0.668,0.57
			l-0.607,0.634l-1.213,1.27c-0.407,0.421-0.816,0.839-1.172,1.306c-0.378,0.447-0.729,0.915-1.07,1.392
			c-1.373,1.897-2.574,3.913-3.667,5.983c-1.551,2.949-2.883,6.021-3.844,9.214c-0.173,0.525-0.401,1.005-0.716,1.426
			c-0.318,0.419-0.709,0.78-1.125,1.086c-0.848,0.604-1.934,0.949-3.02,0.8c-1.1-0.166-1.99-0.839-2.527-1.906
			c-0.275-0.543-0.434-1.132-0.482-1.755c-0.051-0.629,0.001-1.314,0.204-1.938c1.169-3.87,2.671-7.298,4.43-10.652
			c1.245-2.354,2.599-4.642,4.276-6.963c0.798-1.12,1.866-2.447,2.818-3.402l1.477-1.543l0.744-0.766l0.817-0.708
			c4.259-3.854,9.479-6.892,15.105-8.595l2.115-0.619c0.712-0.165,1.434-0.289,2.152-0.43c0.72-0.128,1.438-0.287,2.16-0.377
			l2.172-0.199c2.907-0.274,5.635-0.138,8.434,0.087c5.544,0.555,10.974,2.047,16.079,4.429c5.082,2.399,9.898,5.696,13.805,10.042
			c3.924,4.305,6.926,9.556,8.635,15.113c0.208,0.693,0.453,1.391,0.622,2.083l0.447,2.076c0.138,0.695,0.311,1.381,0.41,2.084
			l0.256,2.119c0.069,0.708,0.191,1.412,0.209,2.122l0.061,2.131l0.028,1.307c0.013,0.254-0.01,0.503-0.022,0.754l-0.188,3.005
			c-0.061,1.003-0.256,1.969-0.384,2.954c-0.103,0.647-0.287,1.257-0.6,1.765c-0.319,0.505-0.716,0.933-1.161,1.259
			C123.562,71.45,122.48,71.693,121.408,71.427z"/>
		<path fill="#FFC819" d="M130.166,68.382c-2.206-0.383-3.545-2.731-3.453-5.368l0.079-1.353c0.018-0.225,0.023-0.451,0.013-0.679
			l-0.026-1.231c-0.04-1.278-0.032-2.559-0.22-3.829l-0.227-1.908l-0.122-0.952l-0.192-0.936c-0.282-1.249-0.479-2.49-0.855-3.741
			c-0.398-1.247-0.753-2.508-1.219-3.734c-0.52-1.209-1.018-2.431-1.59-3.617c-0.639-1.154-1.264-2.321-1.948-3.448
			c-2.826-4.47-6.551-8.307-10.73-11.313c-4.186-3.016-8.811-5.238-13.609-6.721c-4.803-1.479-9.791-2.234-14.831-2.229
			c-5.077-0.002-10.457,0.938-15.332,2.948c-4.907,1.988-9.352,4.999-13.05,8.58L50.2,31.632l-1.299,1.6l-1.148,1.57
			c-1.44,2.078-2.649,4.146-3.768,6.265c-1.232,2.346-2.33,4.741-3.292,7.274c-0.949,2.555-1.795,5.188-2.29,8.396
			c-0.092,0.818-0.299,1.534-0.543,2.287c-0.221,0.8-0.52,1.562-0.858,2.207c-0.607,1.167-1.497,2.047-2.592,2.195
			c-1.091,0.148-2.199-0.525-3.056-1.879c-0.395-0.765-0.688-1.78-0.856-2.898c-0.147-1.028-0.141-1.987-0.01-3.073
			c0.162-0.991,0.343-1.957,0.54-2.897c0.211-0.856,0.425-1.736,0.656-2.569l0.731-2.366l0.792-2.225
			c1.096-2.887,2.32-5.551,3.698-8.177c1.255-2.374,2.606-4.689,4.285-7.113l1.362-1.864c0.511-0.652,1.062-1.323,1.603-1.972
			c1.025-1.104,2.067-2.198,3.122-3.277c4.367-4.236,9.703-7.862,15.611-10.254c0.739-0.297,1.471-0.614,2.221-0.877l2.282-0.697
			c0.763-0.223,1.526-0.452,2.294-0.651l2.325-0.459l2.333-0.419l2.335-0.225l2.338-0.189l2.204-0.021
			c5.867-0.006,11.631,0.868,17.21,2.586c5.572,1.723,10.979,4.311,15.929,7.878c4.941,3.554,9.407,8.142,12.805,13.517
			c0.827,1.351,1.583,2.751,2.342,4.144c0.69,1.422,1.295,2.886,1.909,4.342c0.559,1.469,0.992,2.97,1.459,4.465
			c0.444,1.494,0.684,2.928,1.008,4.401l0.222,1.099l0.148,1.12l0.268,2.246c0.212,1.497,0.217,3.001,0.26,4.505l0.027,1.448
			c0.01,0.269,0.004,0.534-0.015,0.797l-0.089,1.583C134.574,66.63,132.313,68.743,130.166,68.382z"/>
	</g>
	<g>
		<path fill="#A3891F" d="M113.546,92.417c-1.097-0.132-2.069-0.565-2.752-1.104c-0.698-0.532-1.026-1.229-1.062-1.835l0.019-1.005
			c0.002-0.329-0.054-0.612-0.066-0.921c-0.035-0.295-0.005-0.626-0.073-0.892c-0.056-0.274-0.103-0.548-0.141-0.824
			c-0.02-0.286-0.097-0.541-0.178-0.79c-0.072-0.254-0.136-0.51-0.19-0.77c-0.212-0.486-0.348-0.982-0.576-1.474
			c-0.217-0.379-0.373-0.771-0.583-1.166c-0.265-0.388-0.512-0.785-0.744-1.193c-0.265-0.351-0.539-0.661-0.779-1.015
			c-0.247-0.347-0.607-0.621-0.881-0.957c-1.245-1.242-2.823-2.372-4.722-3.317c-3.775-1.908-8.843-2.966-13.837-2.794
			c-0.627-0.02-1.241,0.066-1.86,0.103c-0.624,0.022-1.227,0.117-1.83,0.204l-0.907,0.119l-0.874,0.184l-0.877,0.169l-0.735,0.216
			c-1.965,0.533-3.612,1.301-4.915,2.211c-1.307,0.917-2.255,1.995-3.074,3.338L71.74,79.14l-0.087,0.119l-0.021,0.054
			c-0.027,0.081-0.059,0.076-0.128,0.27c-0.123,0.261-0.288,0.688-0.445,1.142l-0.16,0.484c-0.035,0.094-0.065,0.2-0.094,0.309
			l-0.184,0.642c-0.338,1.268-2.274,2.064-4.456,1.733c-1.084-0.178-2.042-0.658-2.63-1.353c-0.61-0.69-0.864-1.584-0.642-2.446
			l0.246-0.862c0.039-0.145,0.081-0.288,0.129-0.423l0.225-0.682c0.229-0.661,0.475-1.305,0.728-1.853
			c0.122-0.31,0.251-0.508,0.368-0.753c0.089-0.223,0.338-0.531,0.495-0.795c1.362-2.241,3.103-4.166,5.263-5.682
			c2.155-1.516,4.683-2.659,7.437-3.407c2.787-0.77,5.927-1.191,8.987-1.276c6.166-0.189,12.423,1.038,17.608,3.628
			c2.595,1.29,4.912,2.917,6.833,4.839c0.444,0.509,0.966,0.958,1.37,1.496l1.224,1.605l1.102,1.767
			c0.326,0.6,0.595,1.215,0.911,1.814c1.44,3.087,1.971,6.455,1.912,10.151c0.029,0.859-0.551,1.672-1.303,2.168
			C115.659,92.335,114.643,92.55,113.546,92.417z"/>
		<path fill="#FFC819" d="M121.728,89.752c-2.229-0.084-3.917-1.574-4.095-3.182c-0.233-2.507-0.833-4.837-1.816-7.06
			c-0.363-0.662-0.622-1.358-1.036-2.009c-0.429-0.635-0.789-1.34-1.245-1.935c-0.479-0.573-0.876-1.207-1.394-1.754
			c-0.541-0.527-0.998-1.123-1.58-1.619c-2.226-2.067-4.938-3.756-7.948-5.019c-6.024-2.53-13.181-3.357-19.931-2.501
			c-0.841,0.118-1.69,0.209-2.507,0.402l-1.237,0.246c-0.411,0.083-0.769,0.215-1.156,0.316l-1.145,0.316
			c-0.384,0.101-0.727,0.273-1.093,0.402l-1.086,0.407c-0.364,0.132-0.68,0.334-1.024,0.493c-2.726,1.321-5.039,3.12-6.848,5.349
			l-0.689,0.831l-0.579,0.923l-0.595,0.914c-0.165,0.292-0.273,0.518-0.422,0.81c-0.276,0.614-0.557,1.3-0.81,2.044l-0.24,0.727
			c-0.055,0.15-0.094,0.315-0.141,0.473c-0.385,1.263-0.672,2.604-0.894,3.913c-0.294,1.71-2.125,2.932-4.341,2.872
			c-1.103-0.053-2.073-0.507-2.746-1.269c-0.651-0.756-0.996-1.816-0.806-2.907c0.278-1.643,0.631-3.275,1.113-4.871
			c0.059-0.2,0.11-0.402,0.179-0.599l0.31-0.938c0.329-0.967,0.71-1.916,1.134-2.845c0.225-0.458,0.454-0.915,0.705-1.359
			l0.824-1.291l0.828-1.289l0.965-1.19c2.57-3.175,5.884-5.721,9.558-7.496c3.677-1.789,7.688-2.806,11.734-3.322
			c8.094-1.006,16.489-0.083,24.041,3.063c3.764,1.579,7.297,3.75,10.292,6.532c3.004,2.771,5.408,6.172,7.103,9.887
			c1.358,3.044,2.19,6.313,2.492,9.63C125.829,88.094,123.911,89.846,121.728,89.752z"/>
		<path fill="#A3891F" d="M129.585,85.489c-1.111,0.098-2.107-0.303-2.932-0.953c-0.85-0.652-1.421-1.562-1.645-2.638l-0.642-2.417
			c-0.267-0.788-0.579-1.562-0.866-2.344c-0.075-0.194-0.14-0.393-0.226-0.582l-0.438-0.885c-0.455-0.915-0.877-1.847-1.454-2.693
			c-0.546-0.863-1.048-1.756-1.707-2.541c-0.627-0.805-1.216-1.644-1.951-2.358c-5.551-6.059-13.397-9.606-21.405-10.998
			c-4.023-0.704-8.135-0.895-12.207-0.587c-4.067,0.317-8.125,1.091-11.93,2.583c-3.799,1.487-7.324,3.721-10.176,6.648
			c-0.767,0.681-1.353,1.526-2.01,2.307c-0.686,0.762-1.172,1.668-1.736,2.519c-1.136,1.702-1.884,3.627-2.526,5.561
			c-1.02,3.172-1.66,6.471-1.852,9.799c-0.052,1.101-0.488,2.088-1.159,2.901c-0.684,0.8-1.579,1.46-2.684,1.607
			c-1.082,0.16-2.185-0.325-2.961-1.246c-0.38-0.448-0.712-1.03-0.918-1.657c-0.19-0.61-0.305-1.312-0.267-2.01
			c0.249-4.199,0.996-7.987,2.231-11.862c0.386-1.189,0.813-2.374,1.366-3.617l0.414-0.927l0.497-0.971
			c0.332-0.683,0.686-1.184,1.036-1.754c0.719-1.103,1.369-2.248,2.243-3.252c0.843-1.02,1.627-2.094,2.606-2.99
			c3.7-3.8,8.244-6.655,12.969-8.501c1.185-0.458,2.372-0.92,3.581-1.223c1.204-0.342,2.419-0.695,3.584-0.897
			c1.177-0.249,2.356-0.476,3.539-0.614l1.773-0.239l1.776-0.143c4.736-0.356,9.489-0.137,14.194,0.684
			c4.7,0.826,9.365,2.262,13.801,4.463c4.426,2.195,8.627,5.196,12.118,9.008c0.915,0.909,1.682,1.961,2.473,2.988
			c0.829,1.014,1.463,2.106,2.14,3.185c0.703,1.054,1.258,2.229,1.829,3.388l0.547,1.123c0.107,0.241,0.195,0.493,0.293,0.74
			c0.374,0.994,0.765,1.984,1.1,2.991l0.818,3.077c0.289,1.37,0.018,2.702-0.554,3.663C131.67,84.791,130.674,85.391,129.585,85.489
			z"/>
		<path fill="#FFC819" d="M136.723,79.294c-1.079,0.237-2.206-0.145-3.148-0.876c-0.472-0.367-0.898-0.825-1.255-1.357
			c-0.365-0.529-0.729-1.113-0.968-1.774l-0.509-1.341c-0.091-0.221-0.16-0.453-0.27-0.663l-0.513-1.052
			c-0.984-2.132-2.188-4.052-3.498-5.954c-2.688-3.831-6.132-7.068-9.886-9.604c-7.559-5.092-16.156-7.535-24.641-8.187
			c-4.261-0.323-8.537-0.136-12.788,0.51c-4.188,0.633-8.65,1.848-12.802,3.868c-4.161,2.006-8.075,4.855-11.261,8.414
			c-0.76,0.917-1.51,1.844-2.249,2.778c-0.659,0.983-1.292,1.986-1.921,2.989c-0.316,0.467-0.617,1.096-0.915,1.667
			c-0.317,0.596-0.516,1.121-0.774,1.688c-0.464,1.104-0.862,2.179-1.203,3.246c-0.874,2.711-1.482,5.384-1.88,8.177
			c-0.37,2.81-0.583,5.68-0.171,9.114c0.07,0.774,0.171,1.692,0.14,2.504c-0.016,0.816-0.068,1.478-0.235,2.15
			c-0.254,1.277-0.854,2.353-1.879,2.792c-1.011,0.434-2.272,0.09-3.476-0.976c-0.284-0.272-0.561-0.588-0.825-0.944
			c-0.262-0.37-0.523-0.711-0.738-1.243c-0.429-0.972-0.823-2.253-0.919-3.25l-0.187-1.695l-0.076-1.521
			c-0.058-1.052-0.02-1.925-0.005-2.871c0.021-0.934,0.102-1.766,0.162-2.653c0.082-0.851,0.184-1.676,0.287-2.512
			c0.468-3.275,1.164-6.338,2.193-9.54c0.402-1.257,0.876-2.547,1.45-3.906l0.458-1.038l0.233-0.517l0.284-0.567
			c0.379-0.737,0.794-1.572,1.164-2.129c0.763-1.231,1.541-2.457,2.354-3.655c0.897-1.154,1.819-2.294,2.76-3.414
			c3.915-4.379,8.722-7.867,13.736-10.284c4.996-2.436,10.34-3.865,15.083-4.579c4.87-0.739,9.724-0.946,14.578-0.582
			c4.852,0.364,9.71,1.254,14.521,2.788c4.803,1.537,9.572,3.731,14.046,6.766c4.464,3.017,8.63,6.927,11.897,11.572
			c1.585,2.289,3.003,4.571,4.208,7.161l0.614,1.275c0.129,0.255,0.22,0.536,0.33,0.803l0.622,1.629
			c0.292,0.804,0.491,1.602,0.505,2.366c0.007,0.768-0.104,1.484-0.313,2.104C138.623,78.213,137.801,79.057,136.723,79.294z"/>
	</g>
	<g>
		<path fill="#A3891F" d="M109.398,55.778c2.188-0.303,4.198,1.534,4.472,4.103c0.465,5.47,0.604,11.188-0.128,17.352
			c-0.486,3.663-1.17,7.436-2.599,11.408c-1.388,3.934-3.402,8.023-6.35,11.808c-2.921,3.783-6.8,7.138-11.042,9.487
			c-4.241,2.373-8.734,3.788-12.995,4.489c-4.271,0.688-8.351,0.736-12.252,0.401c-3.914-0.337-7.628-1.079-11.39-2.211
			c-0.949-0.296-1.885-0.6-2.864-0.969c-0.473-0.183-1.011-0.378-1.426-0.557l-1.199-0.531l-2.393-1.074
			c-0.796-0.365-1.589-0.702-2.389-1.16l-2.387-1.306c-0.793-0.446-1.585-0.852-2.374-1.397l-2.356-1.562l-1.17-0.792l-1.154-0.905
			l-2.286-1.844c-0.76-0.606-1.482-1.367-2.215-2.055c-1.479-1.355-2.844-2.974-4.184-4.587c-2.611-3.351-4.901-7.153-6.519-11.388
			c-0.378-1.075-0.762-2.142-1.083-3.242c-0.287-1.122-0.59-2.228-0.809-3.377c-0.182-1.129-0.44-2.389-0.532-3.795
			c-0.126-1.375-0.181-2.75-0.137-4.127c0.07-5.513,1.913-10.887,4.902-15.507c3.002-4.631,7.113-8.517,12.029-11.157
			c1.285-0.664,2.596-1.292,4.028-1.781c0.719-0.252,1.332-0.484,2.387-0.745c0.478-0.122,0.958-0.235,1.441-0.339l0.724-0.148
			l0.362-0.068l0.149-0.023l1.023-0.15l0.128-0.019l0.854-0.103l0.072-0.005l0.144-0.01l0.578-0.037l1.156-0.055
			c0.778-0.042,1.522,0.001,2.281,0.03c0.763,0.025,1.501,0.098,2.228,0.199c5.899,0.755,10.836,3.08,14.921,6.003
			c2.057,1.469,3.887,3.141,5.554,4.968c1.597,1.725,3.333,4.08,4.684,6.451c2.32,4.11,3.604,8.766,3.812,13.478
			c0.03,1.179,0.052,2.36-0.036,3.539c-0.038,0.565-0.074,1.234-0.136,1.711l-0.185,1.465c-0.275,1.864-0.636,3.576-1.006,5.037
			c-0.749,2.993-1.479,5.27-1.892,6.926c-0.041,0.136-0.025,0.141-0.032,0.193l-0.01,0.13c-0.009,0.086-0.022,0.171-0.039,0.255
			c-0.017,0.084-0.038,0.168-0.063,0.251c-0.037,0.087-0.05,0.166-0.028,0.229c0.051,0.262-0.093,0.569,0.009,0.749
			c-0.049,0.465,0.177,0.685,0.221,0.967c0.12,0.245,0.322,0.419,0.497,0.665c0.074,0.035,0.154,0.062,0.207,0.122
			c0.031,0.025,0.045,0.071,0.082,0.094c0.047,0.008,0.09,0.021,0.131,0.039c0.057,0.027,0.066,0.036,0.099,0.059
			c0.049,0.047,0.099,0.103,0.187,0.098c0.182,0.025,0.136,0.602,0.15,1.283c-0.021,0.729-0.085,1.761-0.312,2.841
			c-0.227,1.082-0.623,2.001-1.198,2.611c-0.587,0.663-1.263,0.799-1.875,0.582c-0.258-0.07-0.478-0.208-0.697-0.345l-0.387-0.22
			l-0.452-0.237c-0.142-0.091-0.262-0.21-0.397-0.31c-0.261-0.21-0.541-0.396-0.807-0.599c-0.953-0.927-1.807-1.942-2.393-3.127
			c-0.509-1.209-1.005-2.463-1.03-3.88c-0.142-0.677,0.009-1.422,0-2.143c-0.029-0.359,0.133-0.744,0.177-1.115
			c0.079-0.388,0.114-0.722,0.206-1.16c0.499-1.973,1.224-4.238,1.881-6.881c0.331-1.303,0.629-2.738,0.854-4.254
			c0.102-0.766,0.207-1.548,0.252-2.469c0.073-0.884,0.051-1.77,0.038-2.655c-0.146-3.533-1.091-7.042-2.864-10.111
			c-1.018-1.785-2.307-3.514-3.567-4.888c-1.298-1.423-2.723-2.729-4.315-3.862c-3.16-2.263-6.926-4.011-11.249-4.555
			c-0.534-0.076-1.075-0.131-1.629-0.146c-0.551-0.019-1.096-0.06-1.657-0.022l-0.836,0.04l-0.418,0.024l-0.104,0.007l-0.052,0.003
			l-0.443,0.054l-0.128,0.018l-1.024,0.151l-0.138,0.021l-0.244,0.05l-0.487,0.105l-0.971,0.232
			c-0.697,0.166-1.164,0.346-1.686,0.529c-1.045,0.351-2.009,0.822-2.959,1.308c-3.673,1.976-6.76,4.895-9.026,8.356
			c-2.252,3.455-3.688,7.489-3.684,11.636c-0.068,2.035,0.205,4.224,0.533,6.017c0.173,0.914,0.422,1.798,0.645,2.695
			c0.258,0.88,0.573,1.737,0.871,2.602c1.303,3.408,3.167,6.501,5.314,9.267c1.117,1.331,2.234,2.679,3.488,3.817
			c0.62,0.578,1.211,1.218,1.864,1.733l1.95,1.569l0.981,0.776l1.016,0.683l2.04,1.354c0.675,0.475,1.381,0.83,2.079,1.221
			l2.101,1.15c0.697,0.405,1.413,0.705,2.125,1.03l2.14,0.961l1.071,0.478c0.365,0.158,0.798,0.312,1.195,0.466
			c0.812,0.308,1.608,0.565,2.412,0.816c3.201,0.963,6.418,1.609,9.75,1.893c3.324,0.285,6.754,0.236,10.252-0.327
			c3.491-0.574,7.068-1.718,10.393-3.578c3.325-1.846,6.331-4.441,8.635-7.422c2.322-2.981,3.958-6.273,5.111-9.539
			c1.189-3.283,1.779-6.537,2.206-9.733c0.643-5.4,0.532-10.604,0.101-15.663C105.648,58.237,107.211,56.08,109.398,55.778z"/>
		<path fill="#FFC819" d="M101.918,60.952c2.226-0.225,4.12,1.578,4.275,4.012c0.046,1.625,0.076,3.255,0.056,4.901
			c-0.083,1.668-0.089,3.309-0.304,5.012l-0.132,1.268l-0.037,0.352c-0.029,0.278-0.055,0.554-0.108,0.837l-0.285,1.69
			c-0.103,0.564-0.18,1.123-0.308,1.691l-0.416,1.708c-1.151,4.526-3.057,9.263-6.408,13.397c-3.251,4.163-7.937,7.431-12.8,9.14
			c-2.431,0.896-4.905,1.46-7.332,1.754c-2.429,0.301-4.833,0.394-7.174,0.266c-4.701-0.265-9.159-1.122-13.64-2.732
			c-0.546-0.215-1.177-0.428-1.651-0.651l-1.496-0.668l-2.985-1.355l-2.935-1.605c-0.486-0.278-0.981-0.519-1.458-0.831
			l-1.427-0.942c-3.802-2.469-7.455-5.546-10.471-9.415c-3.045-3.824-5.357-8.46-6.515-13.489c-0.17-0.619-0.257-1.271-0.367-1.913
			c-0.115-0.679-0.219-1.374-0.264-2.104c-0.13-1.438-0.156-2.887-0.042-4.322c0.168-2.885,1.1-5.673,2.426-8.227
			c1.333-2.558,3.141-4.868,5.255-6.835c2.14-1.964,4.519-3.557,7.387-4.665l1.08-0.386c0.19-0.062,0.341-0.124,0.564-0.185
			l0.674-0.177c0.451-0.114,0.904-0.218,1.358-0.313l0.307-0.061l0.179-0.026l0.357-0.053l0.715-0.105
			c0.831-0.1,0.272-0.031,0.477-0.054l0.073-0.005l0.146-0.009l0.292-0.017l0.584-0.029c0.784-0.055,1.546-0.004,2.315,0.031
			c3.068,0.197,5.9,1.076,8.438,2.278c2.538,1.216,4.792,2.787,6.753,4.632c0.978,0.926,1.907,1.9,2.74,2.961
			c0.897,1.094,1.704,2.325,2.435,3.562c1.174,2.121,2.057,4.407,2.487,6.795c0.447,2.373,0.489,4.857,0.24,7.226
			c-0.485,4.371-1.666,7.811-2.459,10.757l-0.29,1.066c-0.09,0.342-0.195,0.712-0.214,0.936c-0.082,0.518-0.178,1.03-0.29,1.542
			c-0.027,0.503-0.027,0.996-0.071,1.493c-0.041,0.252-0.003,0.489,0.028,0.725l0.065,0.712c0.234,1.874,0.92,3.582,2.012,5.018
			c0.137,0.18,0.269,0.363,0.396,0.55l0.494,0.471c0.161,0.16,0.318,0.324,0.472,0.493c0.174,0.148,0.374,0.267,0.554,0.409
			c0.184,0.138,0.364,0.279,0.542,0.427c0.183,0.14,0.409,0.221,0.606,0.341l0.252,0.142l0.456,0.274
			c0.164,0.071,0.338,0.123,0.504,0.189c0.34,0.12,0.659,0.286,1.004,0.399c0.359,0.075,0.714,0.161,1.068,0.258
			c0.308,0.116,0.612,0.231,0.881,0.462c0.27,0.23,0.512,0.556,0.726,0.95c0.211,0.407,0.399,0.84,0.536,1.303
			c0.135,0.473,0.217,0.997,0.209,1.55c-0.008,0.552-0.108,1.08-0.302,1.562c-0.194,0.493-0.48,0.919-0.844,1.227
			c-0.364,0.322-0.809,0.566-1.304,0.714c-0.495,0.148-1.043,0.219-1.575,0.056l-1.794-0.449c-0.585-0.189-1.149-0.444-1.725-0.664
			c-0.285-0.117-0.576-0.221-0.855-0.349l-0.806-0.453l-0.438-0.247c-0.347-0.207-0.718-0.377-1.046-0.614l-0.969-0.732
			c-0.319-0.249-0.654-0.479-0.96-0.742l-0.86-0.857l-0.857-0.859l-0.735-0.967c-1.964-2.572-3.195-5.682-3.585-8.892l-0.11-1.21
			c-0.041-0.403-0.084-0.806-0.042-1.21c0.044-0.808,0.064-1.619,0.127-2.425l0.438-2.389c0.142-0.797,0.386-1.572,0.594-2.354
			c0.861-3.116,1.868-6.218,2.211-9.447c0.169-1.609,0.161-3.245-0.129-4.838c-0.284-1.595-0.868-3.127-1.678-4.529
			c-1.958-3.31-4.86-6.097-8.345-7.756c-1.737-0.821-3.614-1.399-5.541-1.514c-1.923-0.132-3.87,0.17-5.666,0.865
			c-3.603,1.406-6.541,4.253-8.385,7.617c-0.899,1.696-1.562,3.558-1.629,5.493c-0.112,1.925,0.111,3.857,0.523,5.736
			c0.872,3.754,2.601,7.301,5.006,10.314c2.369,3.048,5.348,5.582,8.577,7.671l1.204,0.8c0.401,0.267,0.839,0.473,1.256,0.712
			l2.534,1.39l2.633,1.191c0.878,0.396,1.752,0.803,2.662,1.124c3.625,1.31,7.45,2.048,11.295,2.259
			c1.924,0.107,3.857,0.023,5.768-0.212c1.913-0.229,3.804-0.666,5.61-1.336c3.627-1.286,6.909-3.587,9.288-6.62
			c2.447-2.995,3.957-6.645,4.9-10.366l0.345-1.403c0.107-0.47,0.169-0.948,0.256-1.422l0.243-1.425
			c0.047-0.236,0.067-0.477,0.092-0.716l0.031-0.304l0.113-1.095c0.191-1.456,0.188-2.926,0.267-4.391
			c0.018-1.466-0.011-2.934-0.05-4.399C98.056,63.117,99.748,61.163,101.918,60.952z"/>
		<path fill="#A3891F" d="M94.204,65.468c2.237-0.113,4.027,1.599,4.063,3.831c-0.065,1.298-0.083,2.6-0.191,3.896l-0.2,1.94
			L97.81,75.78c-0.051,0.424-0.138,0.843-0.205,1.264c-0.16,0.838-0.248,1.692-0.48,2.515c-0.373,1.667-0.87,3.305-1.487,4.896
			c-1.248,3.175-3.106,6.131-5.573,8.499c-2.483,2.344-5.559,4.049-8.842,4.977c-3.284,0.965-6.737,1.22-10.144,1.048
			c-3.409-0.212-6.794-0.838-10.039-1.909c-6.381-2.355-12.579-5.616-17.407-10.493c-2.4-2.422-4.446-5.22-5.856-8.334
			c-1.413-3.104-2.224-6.506-2.16-9.928c0.043-3.443,1.678-6.691,3.907-9.245c2.244-2.558,5.281-4.511,8.664-5.095
			c3.383-0.603,6.899,0.266,9.844,1.962c2.962,1.702,5.454,4.202,7.182,7.146c1.058,1.767,1.689,3.779,1.852,5.83
			c0.178,2.051-0.038,4.12-0.453,6.131c-0.414,2.016-0.992,3.993-1.554,5.971c-0.278,0.99-0.566,1.978-0.795,2.98
			c-0.168,1.014-0.411,2.019-0.516,3.04c-0.416,4.091,0.464,8.316,2.599,11.837c0.227,0.465,0.554,0.864,0.866,1.272l0.934,1.228
			l1.093,1.089c0.363,0.364,0.717,0.739,1.146,1.027l1.231,0.931c0.199,0.165,0.416,0.301,0.645,0.419l0.612,0.345l0.512,0.288
			c2.765,1.47,5.886,2.226,9.012,2.281c1.098-0.036,2.119,0.463,2.955,1.017c0.832,0.609,1.503,1.52,1.691,2.608
			c0.188,1.087-0.184,2.158-1.038,3.01c-0.831,0.905-2.207,1.336-3.729,1.364c-4.316-0.071-8.72-1.124-12.656-3.221l-0.73-0.409
			l-0.868-0.497c-0.321-0.177-0.631-0.372-0.921-0.601l-1.766-1.329c-0.601-0.429-1.123-0.952-1.649-1.474l-1.56-1.578
			c-0.461-0.579-0.915-1.167-1.361-1.76c-0.447-0.593-0.9-1.18-1.246-1.839c-3.104-5.075-4.32-11.189-3.733-16.807
			c0.144-1.401,0.447-2.753,0.701-4.125c0.283-1.224,0.587-2.259,0.875-3.284c0.576-2.019,1.089-3.808,1.409-5.374
			c0.15-0.754,0.272-1.538,0.312-2.09c0.036-0.512,0.061-1.028,0.007-1.54c-0.091-1.023-0.392-2.033-0.926-2.915
			c-0.223-0.367-0.456-0.714-0.724-1.062c-0.284-0.367-0.647-0.783-1.006-1.138c-0.729-0.727-1.547-1.354-2.379-1.829
			c-0.832-0.477-1.674-0.799-2.438-0.96c-0.384-0.093-0.746-0.023-1.086-0.032c-0.177-0.03-0.331,0.11-0.496,0.11h-0.061h-0.031
			h-0.015c-0.09,0,0.747-0.192,0.373-0.146l-0.317-0.004l-0.634,0.068l-0.312,0.034l-0.018,0.023
			c-0.012,0.016-0.024,0.021-0.04,0.023c-0.008,0-0.016-0.003-0.025-0.005l-0.122,0.05l-0.249,0.088
			c-0.338,0.129-0.668,0.291-1.036,0.509c-0.731,0.44-1.388,1.002-1.952,1.641c-1.123,1.272-1.924,2.902-1.955,4.621
			c-0.025,0.896,0.074,1.577,0.309,2.78c0.149,0.546,0.247,1.102,0.468,1.642l0.275,0.82l0.367,0.8c0.969,2.14,2.425,4.159,4.247,6
			c1.774,1.877,4.082,3.457,6.493,4.93c1.28,0.669,2.476,1.435,3.87,1.992l2.023,0.913c0.671,0.296,1.193,0.479,1.85,0.697
			c5.1,1.687,11.035,2.099,15.441,0.777c1.108-0.325,2.142-0.729,3.053-1.265c0.948-0.49,1.745-1.146,2.521-1.837
			c1.49-1.448,2.724-3.321,3.637-5.636c0.448-1.161,0.832-2.404,1.126-3.726c0.189-0.63,0.253-1.352,0.385-2.027
			c0.055-0.345,0.129-0.679,0.17-1.033l0.054-0.543l0.169-1.633c0.092-1.101,0.103-2.243,0.165-3.363
			C90.229,67.252,92.029,65.59,94.204,65.468z"/>
		<path fill="#FFC819" d="M86.268,69.132c2.197-0.002,3.958,1.594,3.825,3.502l-0.147,1.424l-0.079,0.804l-0.309,1.793
			c-0.079,0.613-0.248,1.16-0.382,1.73c-0.132,0.572-0.268,1.139-0.463,1.653c-0.673,2.15-1.593,4.03-2.742,5.528
			c-1.15,1.503-2.51,2.654-4.142,3.542c-3.239,1.769-7.853,2.308-12.574,1.663c-2.34-0.299-4.759-0.903-6.836-1.695
			c-0.484-0.159-1.139-0.498-1.707-0.742l-1.766-0.79c-1.175-0.528-2.215-1.196-3.337-1.773c-1.054-0.641-2.051-1.332-3.051-2.009
			l-1.375-1.108c-0.227-0.185-0.468-0.36-0.687-0.551l-0.608-0.599c-1.72-1.537-3.024-3.293-4.076-5.097
			c-1.038-1.805-1.729-3.754-2.026-5.637c-0.268-1.529-0.198-3.037,0.452-4.405c0.624-1.353,1.617-2.526,2.819-3.398
			c0.622-0.445,1.242-0.769,1.809-0.936c0.092-0.043,0.11-0.039,0.115-0.035c0.014-0.001,0.025-0.008,0.036-0.02l0.015-0.022
			c0.007-0.004-0.005-0.009,0.018-0.015l0.138-0.021l0.553-0.082l0.552-0.081l0.035,0.096C49.524,61.947,50.113,62,49.937,62h0.027
			h0.053l0.106-0.103c0.141-0.007,0.282-0.08,0.435-0.056c1.178,0.021,2.703,0.478,4.134,1.461c1.404,0.923,2.828,2.447,3.472,3.623
			c0.485,0.831,0.805,1.754,0.911,2.711c0.086,1.013,0.058,1.737-0.197,3.242c-0.245,1.397-0.675,3.008-1.189,4.81l-0.809,2.876
			c-0.136,0.549-0.28,0.986-0.407,1.627l-0.363,1.92c-0.919,5.118-0.438,10.819,1.814,15.905c2.187,5.118,6.197,9.382,10.947,12.097
			c2.858,1.727,6.062,2.713,9.262,3.292c1.611,0.192,3.233,0.434,4.832,0.342c0.8-0.022,1.61-0.013,2.4-0.086l2.346-0.337
			c1.498-0.171,2.832-0.183,4.011,0.263c1.161,0.423,2.113,1.177,2.48,2.219c0.367,1.041,0.043,2.189-0.877,3.207
			c-0.929,0.99-2.375,1.959-4.278,2.199c-0.985,0.155-1.974,0.294-2.961,0.417c-1,0.092-2.035,0.094-3.052,0.117
			c-2.028,0.097-4.118-0.178-6.18-0.443c-4.119-0.729-8.247-2.029-11.97-4.254c-6.172-3.523-11.402-9.113-14.273-15.791
			c-2.954-6.642-3.546-14.053-2.383-20.51c0.145-0.81,0.3-1.617,0.466-2.421c0.087-0.451,0.159-0.686,0.236-0.985l0.229-0.87
			l0.836-2.974c0.503-1.753,0.852-3.116,1.006-4.015l0.061-0.329l0.027-0.249c0.04-0.213,0.006-0.167,0.016-0.167
			c-0.005,0.001,0.014,0,0.011,0c-0.007,0.002-0.001,0.001,0,0c-0.003,0.001-0.016,0.012,0,0.001
			c-0.008,0.004-0.023-0.014-0.08-0.095c-0.044-0.062-0.111-0.107-0.155-0.17c-0.213-0.223-0.449-0.42-0.643-0.551
			c-0.192-0.13-0.343-0.208-0.352-0.201c-0.022,0.049,0.053-0.137,0.084-0.244c0.04-0.122,0.075-0.249,0.107-0.38
			c0.064-0.263,0.129-0.458,0.17-0.718c0.093-0.452,0.133-0.905,0.147-1.224l-0.002-0.44l-0.008-0.1l-0.006-0.053l-0.003-0.026
			c0.283-0.066-0.635,0.129,0.633-0.152l-0.034,0.011l-0.539,0.172l-0.539,0.172l-0.135,0.043c-0.009,0.016,0.042,0.033,0.061,0.048
			l0.16,0.086c0.108,0.053,0.219,0.096,0.331,0.128l0.169,0.042c0.051,0.015,0.036,0.084,0.058,0.123
			c0.055,0.188,0.115,0.326,0.189,0.499c0.081,0.214,0.172,0.408,0.271,0.581l0.163,0.316l0.043,0.077
			c0.936,1.634,0.259,0.453,0.468,0.817h0v0l-0.002-0.005c-0.007-0.013,0.009,0.014,0.002,0.001
			c0.012,0.007-0.009-0.012-0.005-0.008c0.004,0.002,0.01,0.001,0,0l0.024,0.068c0.131,0.826,0.479,1.881,1.079,2.908
			c0.619,1.035,1.387,2.156,2.617,3.231l0.414,0.421c0.157,0.136,0.341,0.262,0.508,0.396c0.341,0.266,0.676,0.539,1.006,0.819
			c0.358,0.269,0.786,0.511,1.169,0.777c0.409,0.253,0.745,0.548,1.205,0.782l1.346,0.729c0.455,0.241,0.861,0.518,1.387,0.72
			l1.495,0.666l0.744,0.341l0.364,0.167l0.255,0.093c0.67,0.257,1.514,0.53,2.382,0.734c0.864,0.221,1.765,0.388,2.642,0.5
			c1.755,0.231,3.447,0.259,4.778,0.068c1.344-0.182,2.357-0.487,2.974-0.854c0.639-0.367,1.044-0.695,1.544-1.329
			c0.487-0.627,1.035-1.654,1.489-3.119c0.056-0.183,0.133-0.337,0.18-0.54l0.142-0.617c0.095-0.417,0.229-0.794,0.283-1.28
			l0.242-1.383L82,73.13l0.121-1.156C82.225,70.44,84.048,69.116,86.268,69.132z"/>
	</g>
	<g>
		<path fill="#A3891F" d="M40.735,102.645c-1.475-1.613-1.117-4.418,1.149-6.234l1.812-1.417c0.635-0.47,1.322-0.937,1.984-1.398
			l1.006-0.69c0.35-0.228,0.735-0.454,1.103-0.678c0.755-0.448,1.467-0.895,2.269-1.324c3.172-1.713,7.017-3.292,11.539-4.057
			c3.622-0.61,7.488-0.586,11.119,0.09c3.611,0.656,6.672,1.859,9.221,3.06c2.557,1.217,4.652,2.461,6.496,3.595l4.801,3.037
			c5.676,3.605,9.045,4.795,13.092,5.051c0.002-0.036-0.003-0.044-0.001-0.013c0.005,0.008-0.004-0.04,0.033-0.014
			c0.005,0.023,0.039,0.009,0.083-0.02c0.04-0.02,0.08-0.032,0.123-0.038c0.07,0.022,0.218-0.081,0.352-0.127
			c0.556-0.222,1.426-0.69,2.347-1.409c0.92-0.746,1.871-1.688,2.721-2.721c0.862-1.024,1.59-2.178,2.072-3.171
			c0.159-0.26,0.219-0.479,0.319-0.702c0.044-0.108,0.111-0.227,0.145-0.323c0.021-0.089,0.046-0.176,0.075-0.261l0.104-0.269
			l0.328-1.112c0.225-0.736,0.45-1.47,0.694-2.192c0.96-2.895,2.077-5.712,3.368-8.525c1.317-2.812,2.785-5.61,4.61-8.424
			c1.811-2.806,3.953-5.64,6.709-8.41c2.77-2.747,6.226-5.501,10.744-7.534c2.258-0.994,4.724-1.814,7.341-2.245
			c1.294-0.211,2.625-0.372,3.935-0.406c0.668-0.017,1.29-0.032,1.996-0.019c0.809,0.036,1.62,0.096,2.427,0.18
			c1.026,0.107,1.071,0.138,1.422,0.188l0.455,0.072l0.228,0.036l0.777,0.142l0.136,0.031l0.271,0.063
			c0.725,0.17,1.446,0.359,2.16,0.564c0.643,0.211,1.27,0.435,1.899,0.669c2.438,0.961,4.573,2.088,6.559,3.475
			c1.006,0.659,1.958,1.453,2.9,2.234c0.934,0.842,1.843,1.691,2.715,2.678c0.871,0.991,1.711,2.002,2.491,3.201
			c0.792,1.112,1.502,2.449,2.15,3.779c0.335,0.639,0.6,1.421,0.874,2.138c0.257,0.746,0.536,1.449,0.718,2.246
			c0.374,1.58,0.718,3.158,0.783,4.806c0.049,0.816,0.091,1.642,0.076,2.45c-0.043,0.798-0.109,1.598-0.198,2.394l-0.15,1.191
			c-0.044,0.375-0.179,0.915-0.279,1.364c-0.223,0.94-0.486,1.877-0.787,2.794l-0.232,0.684l-0.121,0.339l-0.053,0.129l-0.178,0.425
			l-0.356,0.85l-0.089,0.212l-0.022,0.053l-0.49,1.063l-0.026,0.05l-0.104,0.2l-0.423,0.795c-0.285,0.53-0.591,1.019-0.895,1.525
			c-1.252,1.987-2.684,3.881-4.46,5.682c-0.877,0.897-1.87,1.765-2.885,2.587c-0.539,0.405-1.087,0.802-1.642,1.188l-0.837,0.57
			l-0.904,0.523c-1.216,0.689-2.443,1.341-3.786,1.831l-1.161,0.438c-1.172,0.465-2.385,0.696-3.596,0.981
			c-1.249,0.302-2.402,0.283-3.458,0.17c-1.041-0.131-2.023-0.326-2.706-0.743c-1.428-0.777-2.169-1.847-2.066-2.944
			c0.101-1.1,0.96-2.036,2.119-2.712c0.567-0.309,1.294-0.696,2.042-0.946c0.759-0.269,1.569-0.433,2.46-0.661
			c0.867-0.214,1.749-0.354,2.583-0.702l0.831-0.315c0.965-0.341,1.845-0.822,2.722-1.315c0.905-0.465,1.647-1.085,2.456-1.653
			c0.742-0.608,1.474-1.241,2.127-1.909c1.321-1.336,2.408-2.777,3.364-4.288c0.229-0.386,0.466-0.759,0.681-1.16l0.319-0.601
			l0.079-0.151l0.02-0.038l0.252-0.545l0.022-0.053l0.089-0.212l0.357-0.85l0.178-0.425l0.048-0.119l0.075-0.225l0.145-0.454
			c0.359-1.19,0.736-2.542,0.796-3.575c0.059-0.551,0.107-1.104,0.145-1.655c0.008-0.557-0.028-1.123-0.06-1.685
			c-0.03-1.134-0.291-2.22-0.535-3.311c-0.116-0.551-0.328-1.041-0.503-1.56c-0.195-0.5-0.36-1.045-0.607-1.496
			c-1.847-3.837-4.551-6.638-7.537-8.678c-1.492-1.051-3.113-1.893-4.901-2.602l-1.383-0.491c-0.506-0.141-1.016-0.274-1.526-0.397
			l-0.191-0.046l-0.096-0.022l-0.417-0.077l-0.228-0.036l-0.455-0.072c-0.327-0.047-0.501-0.094-1.168-0.152
			c-0.557-0.052-1.115-0.093-1.673-0.122c-0.507-0.008-0.971,0.005-1.459,0.016c-0.961,0.021-1.933,0.144-2.883,0.296
			c-1.916,0.312-3.735,0.923-5.427,1.663c-3.384,1.519-6.104,3.654-8.358,5.892c-2.245,2.256-4.071,4.651-5.64,7.087
			c-1.584,2.437-2.891,4.927-4.071,7.445c-1.158,2.523-2.171,5.075-3.037,7.689c-0.221,0.651-0.423,1.312-0.626,1.974l-0.294,0.999
			l-0.197,0.571c-0.115,0.375-0.241,0.757-0.432,1.155c-0.171,0.394-0.312,0.791-0.541,1.189c-1.564,3.229-4.19,6.349-7.008,8.623
			c-1.429,1.115-2.926,1.991-4.344,2.56c-0.354,0.133-0.708,0.31-1.044,0.366c-0.334,0.064-0.686,0.239-0.997,0.248
			c-0.323,0.026-0.621,0.117-0.929,0.131c-0.309-0.01-0.613,0.003-0.921,0.024c-2.86-0.151-5.674-0.736-8.439-1.782
			c-2.777-1.063-5.553-2.592-8.55-4.479l-4.772-3.019c-1.718-1.058-3.575-2.152-5.699-3.162c-2.119-0.999-4.533-1.937-7.262-2.427
			c-2.736-0.508-5.617-0.523-8.35-0.065c-3.412,0.578-6.438,1.792-9.048,3.205c-0.658,0.352-1.259,0.734-1.889,1.105
			c-0.639,0.368-1.222,0.76-1.787,1.161c-0.57,0.399-1.156,0.794-1.708,1.202l-1.594,1.249c-1.03,0.781-2.111,1.193-3.229,1.19
			C42.55,103.85,41.481,103.458,40.735,102.645z"/>
		<path fill="#FFC819" d="M49.378,105.782c-1.389-1.7-0.959-4.413,1.296-5.915c0.812-0.567,1.748-1.08,2.622-1.612
			c0.906-0.518,1.909-0.984,2.869-1.461c2.07-0.858,4.223-1.673,6.688-2.048l0.835-0.146l1.051-0.098
			c0.703-0.049,1.404-0.134,2.109-0.101c0.704,0.021,1.411,0.01,2.11,0.086c0.698,0.081,1.403,0.163,2.092,0.271
			c2.739,0.486,5.184,1.404,7.324,2.404c4.296,2.044,7.502,4.328,10.548,6.207c1.507,0.947,2.953,1.797,4.377,2.569
			c1.418,0.745,2.816,1.399,4.209,1.938c2.774,1.056,5.598,1.641,8.469,1.794c0.354-0.028,0.706-0.029,1.062-0.027
			c0.349-0.081,0.705-0.106,1.084-0.176c0.388-0.132,0.772-0.201,1.174-0.336c0.404-0.181,0.812-0.304,1.228-0.496
			c1.665-0.765,3.393-1.944,4.977-3.388c1.584-1.449,3.036-3.153,4.232-4.958c1.194-1.795,2.136-3.729,2.636-5.43
			c1.773-6.079,4.169-11.933,7.673-17.583c1.779-2.815,3.847-5.592,6.525-8.165c2.645-2.554,6.048-4.948,10.229-6.313
			c2.075-0.686,4.337-1.041,6.555-1.056c0.284-0.002,0.542-0.013,0.849-0.002l0.965,0.062c0.622,0.046,1.399,0.125,1.623,0.174
			l0.525,0.083l0.263,0.042l0.131,0.021l0.376,0.067l0.055,0.013l0.11,0.026c0.588,0.141,1.182,0.292,1.757,0.458
			c2.199,0.699,4.064,1.659,5.833,2.81c1.763,1.142,3.375,2.545,4.838,4.226c1.464,1.652,2.752,3.691,3.629,6.036
			c0.47,1.153,0.747,2.421,0.974,3.692c0.102,0.636,0.121,1.291,0.16,1.938l0.033,0.973l-0.07,0.955
			c-0.059,0.642-0.117,1.263-0.22,1.915c-0.156,0.714-0.34,1.43-0.55,2.134l-0.332,1.048l-0.206,0.493l-0.411,0.98l-0.052,0.122
			l-0.262,0.575l-0.046,0.087l-0.183,0.347l-0.375,0.688c-0.266,0.442-0.52,0.891-0.808,1.32c-0.56,0.864-1.192,1.696-1.863,2.507
			c-1.384,1.607-3.017,3.107-4.934,4.361c-0.472,0.316-0.997,0.583-1.501,0.864c-0.511,0.274-1.015,0.557-1.569,0.758l-1.315,0.507
			c-0.482,0.195-0.976,0.338-1.479,0.448l-1.505,0.344c-1.007,0.225-1.994,0.24-2.997,0.33c-0.508,0.051-0.985,0.035-1.46,0.005
			l-1.433-0.084c-0.863-0.033-1.586-0.293-2.216-0.624c-0.634-0.328-1.165-0.738-1.562-1.192c-0.758-0.95-0.952-2.102-0.627-3.147
			c0.337-1.062,1.107-1.83,2.021-2.335c0.467-0.274,0.967-0.474,1.48-0.579c0.513-0.101,1.039-0.098,1.594-0.093
			c1.248,0.126,2.508,0.064,3.741-0.147l0.916-0.211c0.309-0.059,0.609-0.143,0.897-0.271l0.796-0.306
			c0.339-0.109,0.643-0.294,0.954-0.463c0.307-0.176,0.631-0.324,0.924-0.524c1.184-0.781,2.24-1.741,3.169-2.811
			c1.803-2.163,3.212-4.782,3.433-7.627l0.051-0.529l-0.03-0.531c-0.028-0.353-0.02-0.71-0.079-1.059
			c-0.142-0.694-0.267-1.394-0.549-2.048c-0.494-1.325-1.244-2.559-2.189-3.613c-1.853-2.145-4.321-3.74-7.005-4.634
			c-2.719-0.786-5.677-0.794-8.375,0.093c-2.699,0.885-5.112,2.506-7.144,4.475c-2.049,1.962-3.77,4.242-5.28,6.637
			c-2.995,4.818-5.184,10.107-6.764,15.545c-0.803,2.722-2.097,5.279-3.657,7.64c-1.568,2.361-3.42,4.534-5.511,6.449
			c-2.097,1.904-4.444,3.552-7.02,4.741c-2.567,1.184-5.396,1.896-8.238,1.761c-3.752-0.188-7.471-0.975-10.979-2.314
			c-3.512-1.346-6.8-3.2-9.977-5.2c-3.185-1.983-6.284-4.137-9.688-5.738c-1.699-0.794-3.478-1.445-5.331-1.773l-1.397-0.179
			c-0.466-0.057-0.938-0.035-1.406-0.056c-0.47-0.034-0.938,0.04-1.406,0.068l-0.702,0.059l-0.566,0.106
			c-1.65,0.234-3.213,0.839-4.748,1.461c-0.739,0.379-1.498,0.721-2.217,1.134c-0.705,0.438-1.441,0.827-2.121,1.306
			C53.281,107.737,50.789,107.497,49.378,105.782z"/>
		<path fill="#A3891F" d="M57.306,109.868c-0.611-0.919-0.833-2.001-0.607-2.964c0.217-0.973,0.849-1.904,1.855-2.371l0.892-0.442
			l0.925-0.367l0.926-0.365l0.955-0.279c0.631-0.211,1.284-0.331,1.938-0.445l0.459-0.086c0.184-0.04,0.374-0.037,0.56-0.058
			l1.122-0.091c0.375-0.011,0.75,0.013,1.125,0.017c0.376-0.002,0.75,0.021,1.122,0.081c1.499,0.128,2.953,0.558,4.366,1.051
			c2.82,1.048,5.412,2.602,7.948,4.201c2.539,1.601,5.048,3.256,7.674,4.712c2.621,1.461,5.357,2.731,8.223,3.636
			c2.864,0.903,5.846,1.427,8.845,1.566c3.223,0.127,6.408-0.797,9.247-2.271c2.852-1.482,5.401-3.503,7.631-5.811
			c2.216-2.323,4.126-4.944,5.611-7.791l0.549-1.072l0.473-1.107c0.34-0.729,0.566-1.501,0.823-2.262
			c0.466-1.536,0.932-3.074,1.484-4.581c2.203-6.01,5.127-11.875,9.447-16.656c2.171-2.349,4.767-4.396,7.795-5.503
			c3.011-1.117,6.409-1.161,9.439-0.103c2.998,1.113,5.727,3.101,7.507,5.78c0.886,1.335,1.515,2.85,1.748,4.443
			c0.198,1.602-0.033,3.219-0.53,4.744c-0.32,0.736-0.588,1.497-0.996,2.191c-0.402,0.694-0.836,1.372-1.325,2.008
			c-0.972,1.273-2.116,2.435-3.46,3.318c-0.316,0.25-0.675,0.433-1.027,0.624c-0.357,0.182-0.692,0.413-1.077,0.535l-0.876,0.337
			c-0.325,0.148-0.677,0.21-1.021,0.291c-2.768,0.688-5.693,0.361-8.385-0.494c-0.524-0.173-0.989-0.445-1.364-0.781
			c-0.362-0.369-0.629-0.827-0.8-1.299c-0.341-0.953-0.264-2.016,0.227-3.005c0.49-0.989,1.27-1.735,2.062-2.168
			c0.395-0.22,0.803-0.339,1.188-0.395c0.377-0.098,0.735-0.102,1.072,0.013c1.74,0.554,3.115,0.606,4.065,0.368
			c0.123-0.025,0.258-0.024,0.362-0.096l0.084-0.037l0.043-0.017l0.177-0.061c0.141-0.017,0.252-0.138,0.384-0.195
			c0.128-0.068,0.268-0.115,0.39-0.233c0.526-0.325,1.074-0.87,1.588-1.543c0.26-0.333,0.496-0.709,0.718-1.082l0.147-0.278
			l0.038-0.069c0.212-0.46-0.278,0.609-0.223,0.485l0.015-0.035l0.029-0.069l0.116-0.278l0.466-1.11l0.057-0.135l-0.023,0.003
			c-0.014,0.003-0.026,0.006-0.037,0.011c-0.02,0.009-0.033,0.022-0.037,0.037c-0.005,0.012,0.002,0.036,0.012,0.041
			c-0.008-0.041-0.012-0.081-0.01-0.121c0.057-0.166-0.013-0.29,0.025-0.428c-0.055-0.257-0.171-0.61-0.485-1.093
			c-0.312-0.47-0.81-1.052-1.48-1.537c-0.647-0.489-1.431-0.915-2.051-1.134l-0.227-0.089c-0.058-0.008-0.114-0.02-0.17-0.035
			l-0.083-0.026l-0.041-0.015l-0.011-0.004c-0.073-0.015,0.634,0.113,0.315,0.056l-0.074-0.012l-0.595-0.094l-0.595-0.094
			c-0.083,0-0.087,0.016-0.134,0.016c-0.036,0.002-0.071-0.001-0.107-0.009c-0.032-0.01-0.157,0.008-0.231,0.007
			c-0.692,0.008-1.345,0.125-2.054,0.382c-1.404,0.498-3.068,1.682-4.655,3.408c-3.197,3.496-5.895,8.652-7.806,13.949
			c-0.24,0.665-0.467,1.335-0.683,2.005l-0.669,2.175c-0.338,1.029-0.667,2.084-1.094,3.021l-0.62,1.439l-0.692,1.361
			c-1.884,3.602-4.207,6.773-6.936,9.639c-2.749,2.842-5.916,5.389-9.715,7.37l-1.44,0.722c-0.489,0.229-1.021,0.421-1.532,0.627
			c-0.522,0.196-1.022,0.413-1.566,0.58l-1.659,0.461c-1.084,0.337-2.294,0.461-3.476,0.641c-1.19,0.147-2.405,0.116-3.605,0.134
			c-3.712-0.171-7.39-0.82-10.899-1.928c-3.501-1.103-6.764-2.632-9.715-4.277c-2.957-1.643-5.627-3.41-8.042-4.931
			c-1.226-0.782-2.351-1.445-3.451-2.065c-1.066-0.563-2.094-1.078-2.998-1.398c-0.903-0.308-1.737-0.563-2.462-0.605
			c-0.185-0.039-0.372-0.049-0.56-0.039c-0.188,0.002-0.375-0.021-0.562-0.016c-0.352,0.059-0.791,0.033-1.084,0.127
			c-0.34,0.062-0.687,0.109-1.064,0.248l-0.558,0.154l-0.589,0.241l-0.595,0.229l-0.62,0.314c-0.683,0.306-1.548,0.333-2.422,0.01
			C58.795,111.379,57.917,110.789,57.306,109.868z"/>
		<path fill="#FFC819" d="M63.857,115.299c-0.494-0.98-0.693-2.025-0.572-2.87c0.101-0.794,0.568-1.525,1.176-1.66l0.414-0.13
			c0.134-0.032,0.261-0.042,0.391-0.067l0.193-0.036l0.187-0.039c0.146-0.044,0.287-0.043,0.427-0.05
			c0.558-0.058,1.124-0.065,1.68,0.01c1.104,0.121,2.395,0.514,3.905,1.227c1.506,0.707,3.194,1.715,5.009,2.859
			c3.64,2.287,7.795,5.099,12.682,7.262c2.437,1.082,5.032,1.996,7.715,2.671c2.705,0.65,5.432,1.021,8.227,1.182
			c0.85,0.002,1.702-0.015,2.552-0.045c0.851-0.01,1.689-0.193,2.52-0.304c0.846-0.107,1.629-0.313,2.407-0.533
			c0.783-0.213,1.576-0.423,2.288-0.724c2.99-1.069,5.566-2.596,7.904-4.29c1.196-0.831,2.249-1.771,3.328-2.694
			c1.007-0.977,2.038-1.938,2.945-2.993c1.869-2.071,3.534-4.299,4.963-6.748c1.433-2.448,2.685-5.062,3.56-8.068
			c0.561-1.936,1.194-3.812,1.943-5.671c1.477-3.696,3.323-7.237,5.467-10.09c2.115-2.896,4.605-4.882,6.547-5.469
			c0.49-0.165,0.964-0.225,1.441-0.284l0.365-0.002l0.183-0.011c0.028,0.006,0.052,0.011,0.077,0.013
			c0.051,0.004,0.102-0.002,0.155-0.019l0.831,0.13c0.49,0.026,1.733,0.582,2.648,1.251c0.934,0.702,1.585,1.537,1.848,2.09
			c0.065,0.141,0.079,0.259,0.146,0.372c-0.031,0.109,0.075,0.201,0.042,0.3c-0.022,0.096,0.052,0.182-0.007,0.298
			c-0.01,0.055-0.01,0.11-0.001,0.168c0.002,0.041-0.02-0.028-0.003-0.034c0.012-0.019,0.041-0.034,0.085-0.039
			c-0.054,0.165-0.204,0.496-0.301,0.736l-0.329,0.785l-0.041,0.098c0.101-0.22-0.241,0.526,0.224-0.486l-0.007,0.012l-0.014,0.024
			l-0.054,0.098l-0.103,0.197c-0.301,0.538-0.672,1.039-1.032,1.493c-0.767,0.866-1.51,1.373-2.232,1.645
			c-0.743,0.281-1.631,0.367-2.852,0.212c-0.318-0.076-0.637-0.139-0.96-0.19c-0.329-0.064-0.703-0.238-1.055-0.339
			c-0.7-0.165-1.486-0.613-2.251-0.937c-0.363-0.137-0.671-0.465-0.894-0.831c-0.224-0.366-0.365-0.787-0.416-1.234
			c-0.107-0.896,0.156-1.891,0.753-2.821c1.206-1.875,3.144-2.785,4.087-2.292c0.462,0.178,1.004,0.517,1.274,0.534
			c0.146,0.033,0.352,0.157,0.438,0.159c0.075-0.011,0.141,0.002,0.205,0.04c0.011,0.003,0.045,0.033,0.035,0.02l-0.01-0.014
			c-0.004,0.008-0.003-0.046-0.018,0.068c-0.044,0.312-0.07,0.635-0.078,0.966c-0.004,0.166-0.004,0.334,0.002,0.504
			c0.004,0.165,0.025,0.374,0.011,0.432c-0.01,0.186-0.008,0.381,0.009,0.585c0.017,0.204,0.047,0.416,0.093,0.635
			c0.012,0.1,0.014,0.154,0.033,0.247c0.017,0.086,0.042,0.181,0.077,0.283c0.013,0.031-0.014-0.042-0.017-0.042
			c-0.007-0.014-0.012-0.019-0.012-0.014c-0.038-0.092-0.094-0.209-0.144-0.294c-0.057-0.103-0.091-0.139-0.168-0.263
			c-0.096-0.165-0.196-0.315-0.302-0.453c-0.179-0.207-0.501-0.655-0.806-0.949l-0.504-0.507l-0.27-0.247l-0.121-0.102
			c0,0.001,0.002,0.009,0.002,0.007c0.002-0.032,0.082-0.108,0.129-0.193l0.007-0.018l0.007-0.007l0.002-0.001
			c-0.007-0.004,0.02,0.009,0.03,0.014c2.891,3.623,0.825,0.998,1.48,1.803l0.162-0.048l1.299-0.38l0.649-0.19l0.325-0.095
			l0.162-0.047l0.081-0.024c0.012,0.01,0.016,0.026,0.024,0.04c0.119,0.221,0.271,0.432,0.452,0.623
			c0.091,0.096,0.188,0.187,0.295,0.271c0.084,0.066,0.267,0.206,0.283,0.188c0.099,0.026,0.212,0.046,0.337,0.056
			c0.384,0.011,0.232,0.009,0.314,0.012c-0.003,0.001,0.066-0.006,0.012-0.001l-0.137,0.02c-0.085,0.016-0.157,0.037-0.215,0.06
			c-0.11,0.029-0.324,0.086-0.458,0.141c-0.074,0.029-0.145,0.06-0.211,0.092l-0.097,0.05l-0.165,0.066
			c-0.466,0.189-0.715,0.395-1.23,0.688c-0.222,0.142-0.427,0.293-0.613,0.453c-0.216,0.158-0.441,0.323-0.635,0.496
			c-0.384,0.364-0.741,0.67-1.033,1.006l-0.357,0.407c-0.075,0.09-0.02,0.021-0.03,0.032c-0.032,0.02-0.026-0.032-0.046-0.019
			c-0.004-0.003-0.016,0.01-0.004-0.024c0.011-0.033,0.112-0.207,0.174-0.33l0.198-0.413c0.175-0.454,0.658-1.463,0.892-2.384
			c0.17-0.514,0.376-1.13,0.498-1.725l0.091-0.457l0.039-0.231l0.009-0.058c0.441-5.287-0.588,7.134-0.494,5.849l-0.046-0.049
			l-0.369-0.392c-0.237-0.258-0.51-0.53-0.72-0.776c0.166-0.097,0.325-0.213,0.471-0.35c0.072-0.067,0.145-0.143,0.208-0.217
			l0.005-0.096c0.002-0.064-0.002-0.155-0.009-0.221c0.002,0.012,0.003,0.014,0.003,0.008c0.002,0.008-0.004-0.034,0.002,0.01
			l0.019,0.113l0.055,0.229c0.032,0.144,0.071,0.277,0.115,0.4l0.034,0.09l0.047,0.153l0.105,0.294l0.262,0.622
			c0.039,0.09,0.026,0.063,0.027,0.068l-0.002,0.001l-0.009-0.005c-0.011,0.005-0.033,0.032-0.055,0.039
			c-0.037-0.007-0.125,0.099-0.206,0.123c-0.102,0.104-0.2,0.131-0.336,0.268c-0.517,0.417-1.272,1.198-2.044,2.243
			c-1.566,2.069-3.174,5.074-4.438,8.261c-0.65,1.614-1.189,3.213-1.681,4.906c-1.116,3.828-2.644,6.99-4.362,9.932
			c-1.719,2.938-3.683,5.564-5.899,8.025c-1.078,1.246-2.302,2.401-3.507,3.559c-1.292,1.117-2.557,2.231-4.011,3.252
			c-2.845,2.058-6.02,3.947-9.856,5.33c-0.905,0.372-1.937,0.66-2.956,0.938l-1.531,0.398c-0.51,0.129-1.084,0.204-1.624,0.299
			c-1.099,0.155-2.222,0.372-3.353,0.399c-1.134,0.049-2.271,0.064-3.403,0.055c-3.345-0.186-6.564-0.629-9.787-1.404
			c-3.186-0.798-6.248-1.882-9.066-3.134c-5.65-2.51-10.203-5.622-13.685-7.799c-1.728-1.092-3.178-1.938-4.156-2.392
			c-0.99-0.469-1.415-0.521-1.385-0.514c0.002-0.012,0.001-0.001,0.004,0c-0.027-0.008-0.045,0.022-0.055,0.013
			c-0.016,0.004-0.022-0.014-0.05-0.007c-0.037,0.021-0.074,0.037-0.112,0.05c-0.128-0.003-0.588-0.245-1.101-0.851
			C65.011,117.059,64.342,116.298,63.857,115.299z"/>
	</g>
</g>
<linearGradient id="SVGID_1_" gradientUnits="userSpaceOnUse" x1="1" y1="111.2199" x2="200" y2="111.2199">
	<stop  offset="0.4669" style="stop-color:#8B272D"/>
	<stop  offset="0.5538" style="stop-color:#48272D"/>
</linearGradient>
<path fill="url(#SVGID_1_)" d="M99.509,128.918L1,67.437v26.107V95c0,5.266,4.783,9.717,10.356,12.982L87,151.472
	c4.157,2.433,9.729,3.531,15.212,3.531c5.479,0,10.92-1.462,15.075-3.895l75.181-43.065c5.573-3.264,7.021-7.705,7.405-12.705
	L200,93.625V68"/>
<path fill="#C1272D" d="M189.065,67.699c0.022,2.022-1.276,4.048-3.898,5.583l-75.124,43.973c-2.6,1.521-6.025,2.282-9.452,2.282
	c-3.427,0-6.854-0.762-9.453-2.282L16.012,73.281c-2.526-1.479-3.896-3.413-3.896-5.363C12.116,55.584,1,56.125,1,67.641
	c0,6.091,3.582,11.684,9.517,15.156l75.126,43.975c4.158,2.432,9.466,3.771,14.948,3.771c5.48,0,10.79-1.34,14.947-3.773
	l75.124-43.972c5.934-3.474,9.338-8.959,9.338-15.05C200,61.659,189.044,65.71,189.065,67.699z"/>
</svg>
